<?xml version="1.0" encoding="utf-8"?>
<!-- Generator: Adobe Illustrator 25.1.0, SVG Export Plug-In . SVG Version: 6.00 Build 0)  -->
<svg version="1.1" id="Layer_1" xmlns="http://www.w3.org/2000/svg" xmlns:xlink="http://www.w3.org/1999/xlink" x="0px" y="0px"
	 viewBox="0 0 1920 1080" style="enable-background:new 0 0 1920 1080;" xml:space="preserve">
<style type="text/css">
	.st0{fill:#5A5377;stroke:#000000;stroke-miterlimit:10;}
	.st1{fill:#5A5377;}
	.st2{fill:#FFFFFF;}
</style>
<rect x="-44.8" y="-37.4" class="st0" width="1996.1" height="661.8"/>
<path class="st1" d="M238.5,647c0-0.7,0.6-1.7,1.3-2l13.8-6.9c0.7-0.3,1.1-1.2,1-2l-3.2-14.6c-0.2-0.7-1-1.4-1.7-1.4l-15.7-1
	c-0.7,0-1.7-0.7-2-1.3l-2.1-3.9c-0.4-0.7-0.4-1.7,0-2.4l7.9-13.3c0.4-0.7,0.3-1.7-0.2-2.2l-10.7-10.9c-0.6-0.5-1.6-0.6-2.2-0.3
	l-13.6,7.6c-0.7,0.4-1.7,0.3-2.4,0l-3.7-2.1c-0.7-0.4-1.2-1.3-1.3-2l-0.6-15.6c0-0.7-0.7-1.6-1.4-1.8l-14.8-3.5
	c-0.7-0.1-1.6,0.3-2,1l-7.3,13.7c-0.4,0.7-1,1.2-1.4,1.2h-0.4c-2.1,0-4.9,0.2-4.9,0.2c-0.7,0-1.7-0.4-2.2-1l-9-12.9
	c-0.4-0.6-1.4-1-2.1-0.8l-14.1,4.8c-0.7,0.3-1.2,1.1-1.2,1.9l1.2,15.3c0,0.7-0.4,1.7-1.1,2.1l-4.5,3.1c-0.6,0.5-1.7,0.6-2.4,0.3
	l-14.5-6c-0.7-0.3-1.7-0.1-2.2,0.5l-9.1,11.2c-0.4,0.6-0.4,1.6,0,2.2l9.3,12.2c0.5,0.6,0.6,1.7,0.3,2.3l-2.5,6
	c-0.3,0.7-1.1,1.4-1.8,1.5L99.6,629c-0.7,0.1-1.4,0.9-1.6,1.6c0,0-1.5,9.5-1.5,15.1l0,0c0,0,0.6,0.3,1.3,0.5l14.4,5.3
	c0.7,0.3,1.4,1.1,1.5,1.8l1.4,7.4c0.2,0.7-0.1,1.8-0.7,2.3L103,673.6c-0.6,0.5-0.7,1.5-0.4,2.2l6.2,12c0.4,0.7,1.3,1.1,2.1,0.9
	l15-3.4c0.7-0.2,1.8,0.2,2.3,0.7l5.5,5.7c0.6,0.5,0.8,1.5,0.7,2.3l-3.8,15c-0.2,0.7,0.2,1.7,0.8,2.1l11.7,6.6
	c0.7,0.3,1.7,0.2,2.2-0.4l10.9-11c0.5-0.5,1.6-0.8,2.3-0.6l7.7,1.7c0.7,0.1,1.5,0.8,1.8,1.5l4.9,14.6c0.2,0.7,1.1,1.3,1.8,1.4
	c0,0,0.4,0,1.3,0c4.7,0,12.3-1,12.3-1c0.7-0.1,1.5-0.8,1.6-1.5l3.2-15.3c0.1-0.7,0.9-1.5,1.6-1.8l6.8-2.6c0.7-0.3,1.8-0.1,2.3,0.3
	l11.9,9.6c0.6,0.5,1.6,0.5,2.2,0.1l11.2-8.5c0.6-0.5,0.8-1.5,0.6-2.2l-5.6-14.6c-0.3-0.7-0.1-1.8,0.4-2.4l3.7-5
	c0.4-0.6,1.4-1.1,2.1-1l15.3,1.6c0.7,0.1,1.6-0.4,1.9-1.1l5-13.7c0.2-0.7-0.1-1.7-0.7-2.1l-12.6-9.3c-0.6-0.5-1.1-1.4-1-2.2
	L238.5,647L238.5,647z M175.7,692.1c-25.5,0-46.2-20.7-46.2-46.2s20.7-46.2,46.2-46.2s46.2,20.7,46.2,46.2
	C221.9,671.4,201.2,692.1,175.7,692.1z"/>
<path class="st1" d="M1617.5,669.2c0-0.8,0.6-1.7,1.3-2.1l14.3-7.2c0.7-0.4,1.2-1.3,1.1-2.1l-3.3-15.2c-0.2-0.8-1-1.4-1.8-1.5
	l-16.2-1.1c-0.8-0.1-1.7-0.7-2.1-1.4l-2.2-4.1c-0.4-0.7-0.4-1.8,0-2.5l8.2-13.8c0.4-0.7,0.3-1.7-0.2-2.3l-11.1-11.3
	c-0.6-0.5-1.6-0.7-2.3-0.3l-14.1,7.9c-0.7,0.4-1.8,0.4-2.5-0.1l-3.8-2.2c-0.7-0.4-1.3-1.3-1.3-2.1l-0.6-16.2c0-0.8-0.7-1.6-1.4-1.9
	l-15.3-3.7c-0.8-0.2-1.7,0.3-2.1,1l-7.6,14.2c-0.4,0.7-1,1.3-1.4,1.3h-0.4c-2.2,0-5.1,0.2-5.1,0.2c-0.8,0.1-1.8-0.4-2.3-1.1
	l-9.3-13.4c-0.5-0.7-1.4-1-2.2-0.8l-14.6,4.9c-0.7,0.3-1.3,1.2-1.2,2l1.3,15.9c0.1,0.8-0.4,1.8-1.1,2.2l-4.7,3.2
	c-0.6,0.5-1.8,0.6-2.5,0.3l-15-6.2c-0.7-0.3-1.8-0.1-2.3,0.5l-9.4,11.6c-0.5,0.6-0.5,1.7,0,2.3l9.6,12.7c0.5,0.6,0.6,1.7,0.3,2.4
	l-2.6,6.3c-0.3,0.7-1.1,1.5-1.9,1.6l-16,2.9c-0.8,0.2-1.5,0.9-1.6,1.7c0,0-1.6,9.8-1.6,15.7l0,0c0,0,0.6,0.3,1.4,0.6l14.9,5.5
	c0.8,0.3,1.4,1.1,1.6,1.9l1.4,7.6c0.2,0.8-0.2,1.8-0.7,2.4l-11.8,11c-0.6,0.5-0.8,1.6-0.5,2.3l6.4,12.5c0.4,0.7,1.4,1.1,2.1,0.9
	l15.6-3.5c0.8-0.2,1.8,0.2,2.4,0.8l5.7,6c0.6,0.6,0.9,1.6,0.7,2.4l-4,15.5c-0.2,0.8,0.2,1.7,0.9,2.2l12.1,6.8
	c0.7,0.4,1.7,0.2,2.3-0.4l11.3-11.4c0.6-0.6,1.6-0.9,2.4-0.7l8,1.8c0.8,0.2,1.6,0.9,1.9,1.6l5,15.1c0.3,0.8,1.1,1.4,1.9,1.4
	c0,0,0.4,0,1.4,0c4.8,0,12.7-1,12.7-1c0.8-0.1,1.6-0.8,1.7-1.6l3.3-15.8c0.2-0.8,0.9-1.6,1.7-1.9l7.1-2.7c0.7-0.3,1.8-0.2,2.4,0.3
	l12.4,10c0.6,0.5,1.7,0.5,2.3,0.1l11.6-8.8c0.6-0.5,0.9-1.5,0.6-2.3l-5.8-15.2c-0.3-0.7-0.1-1.9,0.4-2.5l3.8-5.2
	c0.5-0.7,1.5-1.1,2.2-1l15.8,1.7c0.8,0.1,1.7-0.5,2-1.2l5.2-14.2c0.2-0.8-0.1-1.8-0.7-2.2l-13.1-9.7c-0.6-0.5-1.1-1.5-1-2.3
	L1617.5,669.2L1617.5,669.2z M1552.4,716c-26.5,0-47.9-21.4-47.9-47.9s21.4-47.9,47.9-47.9s47.9,21.4,47.9,47.9
	C1600.3,694.5,1578.9,716,1552.4,716z"/>
<path class="st1" d="M375.2,706c0-0.4,0.3-0.9,0.7-1.1l7.7-3.8c0.4-0.2,0.6-0.7,0.6-1.1l-1.8-8.2c-0.1-0.4-0.6-0.8-1-0.8l-8.7-0.6
	c-0.4,0-0.9-0.4-1.1-0.7l-1.2-2.2c-0.2-0.4-0.2-1,0-1.3l4.4-7.4c0.2-0.4,0.2-0.9-0.1-1.2l-5.9-6.1c-0.3-0.3-0.9-0.3-1.2-0.1
	l-7.6,4.2c-0.4,0.2-1,0.2-1.3,0l-2.1-1.2c-0.4-0.2-0.7-0.7-0.7-1.1l-0.3-8.7c0-0.4-0.4-0.9-0.8-1l-8.2-2c-0.4-0.1-0.9,0.2-1.1,0.5
	l-4.1,7.6c-0.2,0.4-0.5,0.7-0.8,0.7h-0.2c-1.2,0-2.7,0.1-2.7,0.1c-0.4,0-1-0.2-1.2-0.6l-5-7.2c-0.2-0.3-0.8-0.5-1.2-0.4l-7.9,2.7
	c-0.4,0.2-0.7,0.6-0.7,1l0.7,8.6c0,0.4-0.2,1-0.6,1.2l-2.5,1.7c-0.3,0.3-0.9,0.3-1.3,0.2l-8.1-3.4c-0.4-0.2-0.9,0-1.2,0.3l-5,6.3
	c-0.2,0.3-0.2,0.9,0,1.2l5.2,6.8c0.3,0.3,0.3,0.9,0.1,1.3l-1.4,3.4c-0.1,0.4-0.6,0.8-1,0.9L298,696c-0.4,0.1-0.8,0.5-0.9,0.9
	c0,0-0.8,5.3-0.8,8.4l0,0c0,0,0.3,0.1,0.7,0.3l8,2.9c0.4,0.1,0.8,0.6,0.8,1l0.8,4.1c0.1,0.4-0.1,1-0.4,1.3l-6.4,5.9
	c-0.3,0.3-0.4,0.8-0.2,1.2l3.5,6.7c0.2,0.4,0.7,0.6,1.1,0.5l8.4-1.9c0.4-0.1,1,0.1,1.3,0.4l3.1,3.2c0.3,0.3,0.5,0.9,0.4,1.3
	l-2.1,8.3c-0.1,0.4,0.1,0.9,0.5,1.2l6.5,3.7c0.4,0.2,0.9,0.1,1.2-0.2l6.1-6.1c0.3-0.3,0.9-0.5,1.3-0.3l4.3,1c0.4,0.1,0.9,0.5,1,0.9
	l2.7,8.1c0.1,0.4,0.6,0.7,1,0.8c0,0,0.2,0,0.7,0c2.6,0,6.9-0.6,6.9-0.6c0.4-0.1,0.8-0.4,0.9-0.8l1.8-8.5c0.1-0.4,0.5-0.9,0.9-1
	l3.8-1.4c0.4-0.2,1-0.1,1.3,0.2l6.6,5.4c0.3,0.3,0.9,0.3,1.2,0.1l6.2-4.7c0.3-0.3,0.5-0.8,0.3-1.2l-3.1-8.2c-0.1-0.4-0.1-1,0.2-1.3
	l2.1-2.8c0.2-0.3,0.8-0.6,1.2-0.6l8.5,0.9c0.4,0,0.9-0.2,1.1-0.6l2.8-7.6c0.1-0.4-0.1-0.9-0.4-1.2l-7.1-5.2
	c-0.3-0.3-0.6-0.8-0.6-1.2L375.2,706L375.2,706z M340.2,731.1c-14.2,0-25.8-11.5-25.8-25.8s11.5-25.8,25.8-25.8S366,691,366,705.3
	C365.9,719.6,354.4,731.1,340.2,731.1z"/>
<path class="st1" d="M621.5,683.6c0-0.9,0.7-1.9,1.5-2.3l15.9-8c0.8-0.4,1.3-1.4,1.2-2.3l-3.7-16.9c-0.2-0.8-1.1-1.6-2-1.6
	l-18.1-1.2c-0.9-0.1-1.9-0.8-2.3-1.5l-2.5-4.5c-0.4-0.8-0.4-2,0-2.8l9.1-15.4c0.4-0.8,0.3-1.9-0.2-2.6L608.1,612
	c-0.6-0.6-1.8-0.7-2.6-0.3l-15.8,8.8c-0.8,0.4-2,0.4-2.8-0.1l-4.3-2.4c-0.8-0.4-1.4-1.5-1.5-2.3l-0.6-18.1c0-0.9-0.8-1.8-1.6-2.1
	l-17.1-4.1c-0.9-0.2-1.9,0.3-2.3,1.1l-8.5,15.8c-0.4,0.8-1.1,1.4-1.6,1.4H549c-2.5,0-5.7,0.3-5.7,0.3c-0.9,0.1-2-0.5-2.5-1.2
	l-10.4-14.9c-0.5-0.7-1.6-1.1-2.5-0.9l-16.3,5.5c-0.8,0.3-1.4,1.3-1.4,2.2l1.4,17.7c0.1,0.9-0.5,2-1.2,2.5l-5.2,3.6
	c-0.7,0.5-2,0.7-2.8,0.3l-16.7-6.9c-0.8-0.3-2-0.1-2.5,0.6l-10.5,13c-0.5,0.7-0.5,1.9,0,2.6l10.7,14.1c0.5,0.7,0.7,1.9,0.3,2.7
	l-2.9,7c-0.3,0.8-1.3,1.6-2.1,1.8l-17.8,3.2c-0.9,0.2-1.7,1-1.8,1.9c0,0-1.7,11-1.7,17.5l0,0c0,0,0.7,0.3,1.5,0.6l16.6,6.1
	c0.8,0.3,1.6,1.3,1.7,2.1l1.6,8.5c0.2,0.9-0.2,2-0.8,2.6l-13.2,12.3c-0.6,0.6-0.9,1.7-0.5,2.5l7.2,13.9c0.4,0.8,1.5,1.2,2.4,1
	l17.3-3.9c0.9-0.2,2,0.2,2.6,0.8l6.4,6.6c0.6,0.6,1,1.8,0.8,2.6l-4.4,17.3c-0.2,0.8,0.2,1.9,0.9,2.4l13.5,7.6
	c0.8,0.4,1.9,0.2,2.5-0.4l12.5-12.7c0.6-0.6,1.8-0.9,2.6-0.7l8.9,2c0.9,0.2,1.8,0.9,2.1,1.8l5.6,16.8c0.3,0.8,1.2,1.5,2.1,1.6
	c0,0,0.5,0,1.5,0c5.4,0,14.2-1.1,14.2-1.1c0.9-0.1,1.7-0.9,1.9-1.8L569,753c0.2-0.9,1-1.8,1.8-2.1l7.9-3c0.8-0.3,2-0.2,2.7,0.4
	l13.8,11.1c0.7,0.6,1.8,0.6,2.6,0.1l12.9-9.8c0.7-0.6,0.9-1.7,0.6-2.5l-6.4-16.9c-0.3-0.8-0.1-2.1,0.4-2.7l4.3-5.8
	c0.5-0.7,1.6-1.3,2.5-1.1l17.6,1.9c0.9,0.1,1.9-0.5,2.2-1.3l5.8-15.8c0.3-0.8-0.1-2-0.8-2.5l-14.6-10.8c-0.7-0.5-1.2-1.7-1.1-2.5
	L621.5,683.6L621.5,683.6z M549,735.7c-29.5,0-53.4-23.9-53.4-53.4s23.9-53.4,53.4-53.4s53.4,23.9,53.4,53.4
	C602.3,711.8,578.5,735.7,549,735.7z"/>
<path class="st1" d="M750.6,633.1c0-0.6,0.5-1.3,1-1.6l10.7-5.4c0.5-0.3,0.9-1,0.8-1.5l-2.5-11.4c-0.2-0.6-0.8-1.1-1.3-1.1
	l-12.2-0.8c-0.6,0-1.3-0.5-1.6-1l-1.6-3c-0.3-0.5-0.3-1.3,0-1.9L750,595c0.3-0.5,0.2-1.3-0.2-1.7l-8.3-8.5c-0.4-0.4-1.2-0.5-1.7-0.2
	l-10.6,5.9c-0.5,0.3-1.3,0.3-1.9,0l-2.9-1.6c-0.5-0.3-1-1-1-1.6l-0.4-12.1c0-0.6-0.5-1.2-1.1-1.4l-11.5-2.7
	c-0.6-0.1-1.3,0.2-1.6,0.7l-5.7,10.6c-0.3,0.5-0.7,0.9-1,0.9H702c-1.6,0-3.8,0.2-3.8,0.2c-0.6,0-1.3-0.3-1.7-0.8l-7-10
	c-0.3-0.5-1.1-0.7-1.6-0.6l-11,3.7c-0.5,0.2-1,0.9-0.9,1.5l0.9,11.9c0,0.6-0.3,1.3-0.8,1.6l-3.5,2.4c-0.5,0.4-1.3,0.4-1.9,0.2
	l-11.2-4.7c-0.5-0.2-1.3-0.1-1.7,0.4l-7,8.7c-0.3,0.5-0.3,1.3,0,1.7l7.2,9.5c0.4,0.5,0.4,1.3,0.2,1.8l-1.9,4.7
	c-0.2,0.5-0.8,1.1-1.4,1.2l-12,2.2c-0.6,0.1-1.1,0.7-1.2,1.3c0,0-1.2,7.4-1.2,11.8l0,0c0,0,0.4,0.2,1,0.4l11.2,4.1
	c0.6,0.2,1.1,0.8,1.2,1.4l1,5.7c0.1,0.6-0.1,1.4-0.5,1.8l-8.8,8.2c-0.4,0.4-0.6,1.2-0.3,1.7l4.8,9.4c0.3,0.5,1,0.8,1.6,0.7l11.7-2.6
	c0.6-0.1,1.4,0.1,1.8,0.6l4.3,4.5c0.4,0.4,0.7,1.2,0.5,1.8l-3,11.6c-0.2,0.6,0.1,1.3,0.6,1.6l9.1,5.1c0.5,0.3,1.3,0.1,1.7-0.3
	l8.4-8.5c0.4-0.4,1.2-0.6,1.8-0.5l6,1.3c0.6,0.1,1.2,0.6,1.4,1.2l3.8,11.3c0.2,0.6,0.8,1,1.4,1c0,0,0.3,0,1,0c3.6,0,9.5-0.8,9.5-0.8
	c0.6-0.1,1.2-0.6,1.3-1.2l2.5-11.8c0.1-0.6,0.7-1.2,1.2-1.4l5.3-2c0.5-0.2,1.4-0.1,1.8,0.2l9.3,7.5c0.4,0.4,1.2,0.4,1.7,0.1l8.7-6.6
	c0.4-0.4,0.6-1.1,0.4-1.7l-4.3-11.4c-0.2-0.5-0.1-1.4,0.3-1.8l2.9-3.9c0.3-0.5,1.1-0.8,1.7-0.8l11.8,1.3c0.6,0.1,1.3-0.3,1.5-0.9
	l3.9-10.6c0.2-0.6-0.1-1.3-0.5-1.7l-9.8-7.3c-0.5-0.4-0.8-1.1-0.8-1.7L750.6,633.1L750.6,633.1z M701.8,668.1
	c-19.8,0-35.9-16.1-35.9-35.9c0-19.8,16.1-35.9,35.9-35.9c19.8,0,35.9,16.1,35.9,35.9S721.6,668.1,701.8,668.1z"/>
<path class="st1" d="M912.3,750c0-0.5,0.4-1,0.8-1.2l8.4-4.2c0.4-0.2,0.7-0.8,0.6-1.2l-1.9-9c-0.1-0.4-0.6-0.8-1.1-0.9l-9.6-0.6
	c-0.5,0-1-0.4-1.2-0.8l-1.3-2.4c-0.2-0.4-0.2-1.1,0-1.5l4.8-8.2c0.2-0.4,0.2-1-0.1-1.4l-6.5-6.7c-0.3-0.3-1-0.4-1.4-0.2l-8.3,4.6
	c-0.4,0.2-1.1,0.2-1.5,0l-2.3-1.3c-0.4-0.2-0.8-0.8-0.8-1.2l-0.3-9.6c0-0.5-0.4-1-0.8-1.1l-9-2.2c-0.5-0.1-1,0.2-1.2,0.6l-4.5,8.4
	c-0.2,0.4-0.6,0.7-0.8,0.7H874c-1.3,0-3,0.1-3,0.1c-0.5,0-1.1-0.3-1.3-0.6l-5.5-7.9c-0.3-0.4-0.8-0.6-1.3-0.5l-8.6,2.9
	c-0.4,0.2-0.8,0.7-0.7,1.2l0.7,9.4c0,0.5-0.3,1-0.6,1.3l-2.7,1.9c-0.4,0.3-1,0.4-1.5,0.2l-8.8-3.7c-0.4-0.2-1,0-1.3,0.3l-5.5,6.9
	c-0.3,0.4-0.3,1,0,1.4l5.7,7.5c0.3,0.4,0.4,1,0.2,1.4l-1.5,3.7c-0.2,0.4-0.7,0.9-1.1,0.9l-9.4,1.7c-0.5,0.1-0.9,0.5-1,1
	c0,0-0.9,5.8-0.9,9.3l0,0c0,0,0.4,0.2,0.8,0.3l8.8,3.2c0.4,0.2,0.8,0.7,0.9,1.1l0.8,4.5c0.1,0.5-0.1,1.1-0.4,1.4l-7,6.5
	c-0.3,0.3-0.5,0.9-0.3,1.3l3.8,7.4c0.2,0.4,0.8,0.6,1.3,0.5l9.2-2.1c0.5-0.1,1.1,0.1,1.4,0.4l3.4,3.5c0.3,0.3,0.5,0.9,0.4,1.4
	l-2.3,9.2c-0.1,0.4,0.1,1,0.5,1.3l7.2,4c0.4,0.2,1,0.1,1.3-0.2l6.6-6.7c0.3-0.3,1-0.5,1.4-0.4l4.7,1c0.5,0.1,0.9,0.5,1.1,0.9l3,8.9
	c0.1,0.4,0.6,0.8,1.1,0.8c0,0,0.3,0,0.8,0c2.8,0,7.5-0.6,7.5-0.6c0.5-0.1,0.9-0.5,1-0.9l2-9.3c0.1-0.5,0.5-0.9,1-1.1l4.2-1.6
	c0.4-0.2,1.1-0.1,1.4,0.2l7.3,5.9c0.4,0.3,1,0.3,1.4,0.1l6.8-5.2c0.4-0.3,0.5-0.9,0.3-1.3l-3.4-9c-0.2-0.4-0.1-1.1,0.2-1.4l2.3-3.1
	c0.3-0.4,0.9-0.7,1.3-0.6l9.3,1c0.5,0,1-0.3,1.2-0.7l3.1-8.4c0.1-0.4-0.1-1-0.4-1.3l-7.7-5.7c-0.4-0.3-0.6-0.9-0.6-1.3L912.3,750
	L912.3,750z M873.9,777.6c-15.6,0-28.2-12.6-28.2-28.2s12.6-28.2,28.2-28.2s28.2,12.6,28.2,28.2S889.5,777.6,873.9,777.6z"/>
<path class="st1" d="M997.4,594.3c0-0.6,0.5-1.4,1.1-1.7l11.4-5.7c0.6-0.3,0.9-1,0.8-1.6l-2.6-12.1c-0.2-0.6-0.8-1.1-1.4-1.2
	l-13-0.8c-0.6,0-1.4-0.5-1.7-1.1l-1.8-3.2c-0.3-0.5-0.3-1.4,0-2l6.6-11.1c0.3-0.5,0.2-1.4-0.2-1.8l-8.8-9c-0.5-0.4-1.3-0.5-1.8-0.2
	l-11.3,6.3c-0.5,0.3-1.4,0.3-2,0l-3.1-1.7c-0.6-0.3-1-1.1-1.1-1.7l-0.5-13c0-0.6-0.5-1.3-1.1-1.5l-12.2-2.9
	c-0.6-0.1-1.4,0.2-1.7,0.8l-6.1,11.3c-0.3,0.6-0.8,1-1.1,1h-0.3c-1.8,0-4.1,0.2-4.1,0.2c-0.6,0-1.4-0.3-1.8-0.9l-7.4-10.7
	c-0.4-0.5-1.1-0.8-1.8-0.6l-11.7,3.9c-0.6,0.2-1,0.9-1,1.6l1,12.7c0,0.6-0.3,1.4-0.9,1.8l-3.7,2.6c-0.5,0.4-1.4,0.5-2,0.2l-12-5
	c-0.6-0.2-1.4-0.1-1.8,0.4l-7.5,9.3c-0.4,0.5-0.4,1.3,0,1.8l7.7,10.1c0.4,0.5,0.5,1.4,0.2,1.9l-2.1,5c-0.2,0.6-0.9,1.2-1.5,1.3
	l-12.8,2.3c-0.6,0.1-1.2,0.7-1.3,1.3c0,0-1.2,7.9-1.2,12.5l0,0c0,0,0.5,0.2,1.1,0.4l11.9,4.4c0.6,0.2,1.1,0.9,1.2,1.5l1.1,6.1
	c0.1,0.6-0.1,1.5-0.6,1.9l-9.4,8.8c-0.5,0.4-0.6,1.2-0.4,1.8l5.1,10c0.3,0.5,1.1,0.9,1.7,0.7l12.4-2.8c0.6-0.1,1.5,0.1,1.9,0.6
	l4.6,4.8c0.5,0.4,0.7,1.3,0.5,1.9l-3.2,12.4c-0.2,0.6,0.2,1.4,0.7,1.7l9.7,5.5c0.6,0.3,1.4,0.1,1.8-0.3l9-9.1
	c0.4-0.4,1.3-0.7,1.9-0.5l6.4,1.4c0.6,0.1,1.3,0.7,1.5,1.3l4,12.1c0.2,0.6,0.9,1.1,1.5,1.1c0,0,0.3,0,1.1,0c3.9,0,10.2-0.8,10.2-0.8
	c0.6-0.1,1.2-0.7,1.4-1.3l2.7-12.6c0.1-0.6,0.7-1.3,1.3-1.5l5.6-2.1c0.6-0.2,1.5-0.1,1.9,0.3l9.9,8c0.5,0.4,1.3,0.4,1.8,0.1l9.3-7
	c0.5-0.4,0.7-1.2,0.5-1.8l-4.6-12.1c-0.2-0.6-0.1-1.5,0.3-2l3.1-4.2c0.4-0.5,1.2-0.9,1.8-0.8l12.6,1.4c0.6,0.1,1.3-0.4,1.6-0.9
	l4.1-11.3c0.2-0.6-0.1-1.4-0.6-1.8l-10.5-7.7c-0.5-0.4-0.9-1.2-0.8-1.8L997.4,594.3L997.4,594.3z M945.4,631.7
	c-21.1,0-38.3-17.1-38.3-38.3s17.1-38.3,38.3-38.3s38.3,17.1,38.3,38.3S966.5,631.7,945.4,631.7z"/>
<path class="st1" d="M1215.2,736.3c0-0.4,0.3-0.9,0.7-1.1l7.7-3.8c0.4-0.2,0.6-0.7,0.6-1.1l-1.8-8.2c-0.1-0.4-0.6-0.8-1-0.8
	l-8.7-0.6c-0.4,0-0.9-0.4-1.1-0.7l-1.2-2.2c-0.2-0.4-0.2-1,0-1.3l4.4-7.4c0.2-0.4,0.2-0.9-0.1-1.2l-5.9-6.1
	c-0.3-0.3-0.9-0.3-1.2-0.1l-7.6,4.2c-0.4,0.2-1,0.2-1.3,0l-2.1-1.2c-0.4-0.2-0.7-0.7-0.7-1.1l-0.3-8.7c0-0.4-0.4-0.9-0.8-1l-8.2-2
	c-0.4-0.1-0.9,0.2-1.1,0.5l-4.1,7.6c-0.2,0.4-0.5,0.7-0.8,0.7h-0.2c-1.2,0-2.7,0.1-2.7,0.1c-0.4,0-1-0.2-1.2-0.6l-5-7.2
	c-0.2-0.3-0.8-0.5-1.2-0.4l-7.9,2.7c-0.4,0.2-0.7,0.6-0.7,1l0.7,8.6c0,0.4-0.2,1-0.6,1.2l-2.5,1.7c-0.3,0.3-0.9,0.3-1.3,0.2
	l-8.1-3.4c-0.4-0.2-0.9,0-1.2,0.3l-5,6.3c-0.2,0.3-0.2,0.9,0,1.2l5.2,6.8c0.3,0.3,0.3,0.9,0.1,1.3l-1.4,3.4c-0.1,0.4-0.6,0.8-1,0.9
	l-8.6,1.5c-0.4,0.1-0.8,0.5-0.9,0.9c0,0-0.8,5.3-0.8,8.4l0,0c0,0,0.3,0.1,0.7,0.3l8,2.9c0.4,0.1,0.8,0.6,0.8,1l0.8,4.1
	c0.1,0.4-0.1,1-0.4,1.3l-6.4,5.9c-0.3,0.3-0.4,0.8-0.2,1.2l3.5,6.7c0.2,0.4,0.7,0.6,1.1,0.5l8.4-1.9c0.4-0.1,1,0.1,1.3,0.4l3.1,3.2
	c0.3,0.3,0.5,0.9,0.4,1.3l-2.1,8.3c-0.1,0.4,0.1,0.9,0.5,1.2l6.5,3.7c0.4,0.2,0.9,0.1,1.2-0.2l6.1-6.1c0.3-0.3,0.9-0.5,1.3-0.3
	l4.3,1c0.4,0.1,0.9,0.5,1,0.9l2.7,8.1c0.1,0.4,0.6,0.7,1,0.8c0,0,0.2,0,0.7,0c2.6,0,6.9-0.6,6.9-0.6c0.4-0.1,0.8-0.4,0.9-0.8
	l1.8-8.5c0.1-0.4,0.5-0.9,0.9-1l3.8-1.4c0.4-0.2,1-0.1,1.3,0.2l6.6,5.4c0.3,0.3,0.9,0.3,1.2,0.1l6.2-4.7c0.3-0.3,0.5-0.8,0.3-1.2
	l-3.1-8.2c-0.1-0.4-0.1-1,0.2-1.3l2.1-2.8c0.2-0.3,0.8-0.6,1.2-0.6l8.5,0.9c0.4,0,0.9-0.2,1.1-0.6l2.8-7.6c0.1-0.4-0.1-0.9-0.4-1.2
	l-7.1-5.2c-0.3-0.3-0.6-0.8-0.6-1.2L1215.2,736.3L1215.2,736.3z M1180.2,761.4c-14.2,0-25.8-11.5-25.8-25.8
	c0-14.2,11.5-25.8,25.8-25.8s25.8,11.5,25.8,25.8C1205.9,749.9,1194.4,761.4,1180.2,761.4z"/>
<path class="st1" d="M1311.7,655.6c0-0.6,0.4-1.2,0.9-1.5l10.2-5.1c0.5-0.2,0.8-0.9,0.7-1.5l-2.3-10.8c-0.1-0.5-0.7-1-1.3-1.1
	l-11.6-0.7c-0.6,0-1.2-0.5-1.5-1l-1.6-2.9c-0.3-0.5-0.3-1.3,0-1.8l5.8-9.8c0.3-0.5,0.2-1.2-0.1-1.6l-7.9-8c-0.4-0.4-1.2-0.5-1.6-0.2
	l-10.1,5.6c-0.5,0.3-1.3,0.2-1.8,0l-2.7-1.5c-0.5-0.3-0.9-0.9-0.9-1.5l-0.4-11.5c0-0.6-0.5-1.2-1-1.3l-10.9-2.6
	c-0.6-0.1-1.2,0.2-1.5,0.7l-5.4,10.1c-0.3,0.5-0.7,0.9-1,0.9h-0.3c-1.6,0-3.6,0.2-3.6,0.2c-0.6,0-1.3-0.3-1.6-0.8l-6.6-9.5
	c-0.3-0.5-1-0.7-1.6-0.6l-10.4,3.5c-0.5,0.2-0.9,0.8-0.9,1.4l0.9,11.3c0,0.6-0.3,1.3-0.8,1.6l-3.3,2.3c-0.4,0.3-1.2,0.4-1.8,0.2
	l-10.7-4.4c-0.5-0.2-1.2-0.1-1.6,0.4l-6.7,8.3c-0.3,0.4-0.3,1.2,0,1.6l6.8,9c0.3,0.4,0.4,1.2,0.2,1.7l-1.9,4.4
	c-0.2,0.5-0.8,1-1.4,1.1l-11.4,2c-0.6,0.1-1.1,0.6-1.2,1.2c0,0-1.1,7-1.1,11.2l0,0c0,0,0.4,0.2,1,0.4l10.6,3.9
	c0.5,0.2,1,0.8,1.1,1.4l1,5.4c0.1,0.6-0.1,1.3-0.5,1.7l-8.4,7.8c-0.4,0.4-0.6,1.1-0.3,1.6l4.6,8.9c0.3,0.5,1,0.8,1.5,0.7l11.1-2.5
	c0.6-0.1,1.3,0.1,1.7,0.5l4.1,4.2c0.4,0.4,0.6,1.1,0.5,1.7l-2.8,11c-0.1,0.5,0.1,1.2,0.6,1.5l8.6,4.9c0.5,0.2,1.2,0.1,1.6-0.3l8-8.1
	c0.4-0.4,1.2-0.6,1.7-0.5l5.7,1.3c0.6,0.1,1.1,0.6,1.3,1.1l3.6,10.7c0.2,0.5,0.8,1,1.3,1c0,0,0.3,0,1,0c3.4,0,9.1-0.7,9.1-0.7
	c0.6-0.1,1.1-0.6,1.2-1.1l2.4-11.2c0.1-0.6,0.6-1.1,1.2-1.3l5-1.9c0.5-0.2,1.3-0.1,1.7,0.2l8.8,7.1c0.4,0.4,1.2,0.4,1.6,0.1l8.3-6.3
	c0.4-0.4,0.6-1.1,0.4-1.6l-4.1-10.8c-0.2-0.5-0.1-1.3,0.3-1.7l2.7-3.7c0.3-0.5,1-0.8,1.6-0.7l11.2,1.2c0.6,0.1,1.2-0.3,1.4-0.8
	l3.7-10.1c0.2-0.5-0.1-1.2-0.5-1.6l-9.3-6.9c-0.4-0.3-0.8-1.1-0.7-1.6L1311.7,655.6L1311.7,655.6z M1265.4,688.8
	c-18.8,0-34.1-15.3-34.1-34.1s15.3-34.1,34.1-34.1c18.8,0,34.1,15.3,34.1,34.1S1284.2,688.8,1265.4,688.8z"/>
<path class="st1" d="M1481.8,780.4c0-0.5,0.4-1.1,0.9-1.4l9.5-4.8c0.5-0.2,0.8-0.8,0.7-1.4l-2.2-10.1c-0.1-0.5-0.7-0.9-1.2-1
	l-10.8-0.7c-0.5,0-1.1-0.4-1.4-0.9l-1.5-2.7c-0.3-0.4-0.3-1.2,0-1.6l5.5-9.2c0.3-0.4,0.2-1.1-0.1-1.5l-7.3-7.5
	c-0.4-0.3-1.1-0.4-1.5-0.2l-9.4,5.2c-0.4,0.2-1.2,0.2-1.6,0l-2.5-1.4c-0.5-0.2-0.8-0.9-0.9-1.4l-0.4-10.8c0-0.5-0.4-1.1-0.9-1.2
	l-10.2-2.4c-0.5-0.1-1.1,0.2-1.4,0.7l-5.1,9.4c-0.2,0.5-0.7,0.8-0.9,0.8h-0.2c-1.5,0-3.4,0.1-3.4,0.1c-0.5,0-1.2-0.3-1.5-0.7
	l-6.2-8.9c-0.3-0.4-0.9-0.7-1.5-0.5l-9.7,3.3c-0.5,0.2-0.8,0.8-0.8,1.3l0.8,10.6c0,0.5-0.3,1.2-0.7,1.5l-3.1,2.1
	c-0.4,0.3-1.2,0.4-1.6,0.2l-10-4.1c-0.5-0.2-1.2,0-1.5,0.3l-6.2,7.7c-0.3,0.4-0.3,1.1,0,1.5l6.4,8.4c0.3,0.4,0.4,1.1,0.2,1.6
	l-1.7,4.2c-0.2,0.5-0.7,1-1.3,1.1l-10.6,1.9c-0.5,0.1-1,0.6-1.1,1.1c0,0-1,6.5-1,10.4l0,0c0,0,0.4,0.2,0.9,0.4l9.9,3.6
	c0.5,0.2,0.9,0.7,1,1.3l0.9,5.1c0.1,0.5-0.1,1.2-0.5,1.6l-7.8,7.3c-0.4,0.3-0.5,1-0.3,1.5l4.3,8.3c0.3,0.4,0.9,0.7,1.4,0.6l10.3-2.3
	c0.5-0.1,1.2,0.1,1.6,0.5l3.8,4c0.4,0.4,0.6,1.1,0.4,1.6l-2.6,10.3c-0.1,0.5,0.1,1.1,0.6,1.4l8.1,4.5c0.5,0.2,1.1,0.1,1.5-0.2
	l7.5-7.6c0.4-0.4,1.1-0.6,1.6-0.4l5.3,1.2c0.5,0.1,1.1,0.6,1.2,1.1l3.3,10c0.2,0.5,0.7,0.9,1.2,0.9c0,0,0.3,0,0.9,0
	c3.2,0,8.5-0.7,8.5-0.7c0.5-0.1,1-0.5,1.1-1l2.2-10.5c0.1-0.5,0.6-1.1,1.1-1.2l4.7-1.8c0.5-0.2,1.2-0.1,1.6,0.2l8.2,6.6
	c0.4,0.3,1.1,0.3,1.5,0.1l7.7-5.9c0.4-0.3,0.6-1,0.4-1.5l-3.8-10.1c-0.2-0.5-0.1-1.2,0.2-1.6l2.5-3.5c0.3-0.4,1-0.7,1.5-0.7
	l10.5,1.1c0.5,0,1.1-0.3,1.3-0.8l3.4-9.4c0.1-0.5-0.1-1.2-0.5-1.5l-8.7-6.4c-0.4-0.3-0.7-1-0.7-1.5L1481.8,780.4L1481.8,780.4z
	 M1438.6,811.5c-17.6,0-31.8-14.2-31.8-31.8s14.2-31.8,31.8-31.8c17.6,0,31.8,14.2,31.8,31.8
	C1470.4,797.2,1456.2,811.5,1438.6,811.5z"/>
<path class="st1" d="M1859.2,645.3c0-0.5,0.4-1.2,0.9-1.5l10-5c0.5-0.2,0.8-0.9,0.7-1.4l-2.3-10.6c-0.1-0.5-0.7-1-1.3-1l-11.4-0.7
	c-0.5,0-1.2-0.5-1.5-1l-1.5-2.8c-0.3-0.5-0.3-1.3,0-1.7l5.7-9.7c0.3-0.5,0.2-1.2-0.1-1.6l-7.7-7.9c-0.4-0.4-1.1-0.5-1.6-0.2
	l-9.9,5.5c-0.5,0.3-1.3,0.2-1.7,0l-2.7-1.5c-0.5-0.3-0.9-0.9-0.9-1.5l-0.4-11.3c0-0.5-0.5-1.1-1-1.3l-10.7-2.6
	c-0.5-0.1-1.2,0.2-1.5,0.7l-5.3,9.9c-0.3,0.5-0.7,0.9-1,0.9h-0.3c-1.5,0-3.6,0.2-3.6,0.2c-0.5,0-1.3-0.3-1.6-0.8l-6.5-9.4
	c-0.3-0.5-1-0.7-1.5-0.6l-10.2,3.4c-0.5,0.2-0.9,0.8-0.9,1.4l0.9,11.1c0,0.5-0.3,1.2-0.8,1.5l-3.3,2.3c-0.4,0.3-1.2,0.4-1.7,0.2
	l-10.5-4.4c-0.5-0.2-1.2-0.1-1.6,0.4l-6.6,8.1c-0.3,0.4-0.3,1.2,0,1.6l6.7,8.9c0.3,0.4,0.4,1.2,0.2,1.7l-1.8,4.4
	c-0.2,0.5-0.8,1-1.3,1.1l-11.2,2c-0.5,0.1-1,0.6-1.1,1.2c0,0-1.1,6.9-1.1,11l0,0c0,0,0.4,0.2,0.9,0.4l10.4,3.8
	c0.5,0.2,1,0.8,1.1,1.3l1,5.3c0.1,0.5-0.1,1.3-0.5,1.7l-8.3,7.7c-0.4,0.4-0.5,1.1-0.3,1.6l4.5,8.7c0.3,0.5,0.9,0.8,1.5,0.6l10.9-2.4
	c0.5-0.1,1.3,0.1,1.6,0.5l4,4.2c0.4,0.4,0.6,1.1,0.5,1.7l-2.8,10.8c-0.1,0.5,0.1,1.2,0.6,1.5l8.5,4.8c0.5,0.2,1.2,0.1,1.6-0.3l7.9-8
	c0.4-0.4,1.1-0.6,1.7-0.5l5.6,1.2c0.5,0.1,1.1,0.6,1.3,1.1l3.5,10.5c0.2,0.5,0.8,1,1.3,1c0,0,0.3,0,0.9,0c3.4,0,8.9-0.7,8.9-0.7
	c0.5-0.1,1.1-0.6,1.2-1.1l2.3-11.1c0.1-0.5,0.6-1.1,1.2-1.3l4.9-1.9c0.5-0.2,1.3-0.1,1.7,0.2l8.6,7c0.4,0.3,1.2,0.4,1.6,0.1l8.1-6.2
	c0.4-0.3,0.6-1.1,0.4-1.6l-4-10.6c-0.2-0.5-0.1-1.3,0.3-1.7l2.7-3.7c0.3-0.5,1-0.8,1.6-0.7l11.1,1.2c0.5,0.1,1.2-0.3,1.4-0.8
	l3.6-9.9c0.2-0.5-0.1-1.2-0.5-1.6l-9.2-6.8c-0.4-0.3-0.8-1-0.7-1.6L1859.2,645.3L1859.2,645.3z M1813.7,677.9
	c-18.5,0-33.5-15-33.5-33.5s15-33.5,33.5-33.5s33.5,15,33.5,33.5S1832.2,677.9,1813.7,677.9z"/>
<path class="st1" d="M37.5,768.3c0-0.4,0.4-1,0.8-1.2l8.2-4.1c0.4-0.2,0.7-0.7,0.6-1.2l-1.9-8.7c-0.1-0.4-0.6-0.8-1-0.8l-9.3-0.6
	c-0.4,0-1-0.4-1.2-0.8l-1.3-2.3c-0.2-0.4-0.2-1,0-1.4l4.7-8c0.2-0.4,0.2-1-0.1-1.3l-6.4-6.5c-0.3-0.3-0.9-0.4-1.3-0.2l-8.1,4.5
	c-0.4,0.2-1,0.2-1.4,0l-2.2-1.3c-0.4-0.2-0.7-0.8-0.8-1.2l-0.3-9.3c0-0.4-0.4-0.9-0.8-1.1l-8.8-2.1c-0.4-0.1-1,0.2-1.2,0.6l-4.4,8.2
	c-0.2,0.4-0.6,0.7-0.8,0.7H0.2c-1.3,0-2.9,0.1-2.9,0.1c-0.4,0-1-0.2-1.3-0.6l-5.4-7.7c-0.3-0.4-0.8-0.6-1.3-0.5l-8.4,2.8
	c-0.4,0.2-0.7,0.7-0.7,1.1l0.7,9.2c0,0.4-0.2,1-0.6,1.3l-2.7,1.9c-0.4,0.3-1,0.3-1.4,0.2l-8.6-3.6c-0.4-0.2-1,0-1.3,0.3l-5.4,6.7
	c-0.3,0.4-0.3,1,0,1.3l5.5,7.3c0.3,0.4,0.3,1,0.2,1.4l-1.5,3.6c-0.2,0.4-0.6,0.8-1.1,0.9l-9.2,1.7c-0.4,0.1-0.9,0.5-0.9,1
	c0,0-0.9,5.7-0.9,9l0,0c0,0,0.3,0.2,0.8,0.3l8.6,3.1c0.4,0.2,0.8,0.6,0.9,1.1l0.8,4.4c0.1,0.4-0.1,1.1-0.4,1.4l-6.8,6.3
	c-0.3,0.3-0.4,0.9-0.3,1.3l3.7,7.2c0.2,0.4,0.8,0.6,1.2,0.5l9-2c0.4-0.1,1.1,0.1,1.4,0.4l3.3,3.4c0.3,0.3,0.5,0.9,0.4,1.4l-2.3,8.9
	c-0.1,0.4,0.1,1,0.5,1.2l7,3.9c0.4,0.2,1,0.1,1.3-0.2l6.5-6.6c0.3-0.3,0.9-0.5,1.4-0.4l4.6,1c0.4,0.1,0.9,0.5,1.1,0.9l2.9,8.7
	c0.1,0.4,0.6,0.8,1.1,0.8c0,0,0.2,0,0.8,0c2.8,0,7.3-0.6,7.3-0.6c0.4-0.1,0.9-0.5,1-0.9l1.9-9.1c0.1-0.4,0.5-0.9,1-1.1l4.1-1.5
	c0.4-0.2,1.1-0.1,1.4,0.2l7.1,5.7c0.3,0.3,1,0.3,1.3,0.1l6.7-5.1c0.3-0.3,0.5-0.9,0.3-1.3l-3.3-8.7c-0.2-0.4-0.1-1.1,0.2-1.4l2.2-3
	c0.3-0.4,0.8-0.6,1.3-0.6l9.1,1c0.4,0,1-0.3,1.1-0.7l3-8.1c0.1-0.4-0.1-1-0.4-1.3l-7.5-5.6c-0.4-0.3-0.6-0.9-0.6-1.3L37.5,768.3
	L37.5,768.3z M0.1,795.2c-15.2,0-27.6-12.3-27.6-27.6S-15.2,740,0.1,740s27.6,12.3,27.6,27.6S15.3,795.2,0.1,795.2z"/>
<path class="st1" d="M1071.2,862.4c0-0.4,0.3-0.9,0.7-1.1l7.7-3.8c0.4-0.2,0.6-0.7,0.6-1.1l-1.8-8.2c-0.1-0.4-0.6-0.8-1-0.8
	l-8.7-0.6c-0.4,0-0.9-0.4-1.1-0.7l-1.2-2.2c-0.2-0.4-0.2-1,0-1.3l4.4-7.4c0.2-0.4,0.2-0.9-0.1-1.2l-5.9-6.1
	c-0.3-0.3-0.9-0.3-1.2-0.1l-7.6,4.2c-0.4,0.2-1,0.2-1.3,0l-2.1-1.2c-0.4-0.2-0.7-0.7-0.7-1.1l-0.3-8.7c0-0.4-0.4-0.9-0.8-1l-8.2-2
	c-0.4-0.1-0.9,0.2-1.1,0.5l-4.1,7.6c-0.2,0.4-0.5,0.7-0.8,0.7h-0.2c-1.2,0-2.7,0.1-2.7,0.1c-0.4,0-1-0.2-1.2-0.6l-5-7.2
	c-0.2-0.3-0.8-0.5-1.2-0.4l-7.9,2.7c-0.4,0.2-0.7,0.6-0.7,1l0.7,8.6c0,0.4-0.2,1-0.6,1.2l-2.5,1.7c-0.3,0.3-0.9,0.3-1.3,0.2
	l-8.1-3.4c-0.4-0.2-0.9,0-1.2,0.3l-5,6.3c-0.2,0.3-0.2,0.9,0,1.2l5.2,6.8c0.3,0.3,0.3,0.9,0.1,1.3l-1.4,3.4c-0.1,0.4-0.6,0.8-1,0.9
	l-8.6,1.5c-0.4,0.1-0.8,0.5-0.9,0.9c0,0-0.8,5.3-0.8,8.4l0,0c0,0,0.3,0.1,0.7,0.3l8,2.9c0.4,0.1,0.8,0.6,0.8,1l0.8,4.1
	c0.1,0.4-0.1,1-0.4,1.3l-6.4,5.9c-0.3,0.3-0.4,0.8-0.2,1.2l3.5,6.7c0.2,0.4,0.7,0.6,1.1,0.5l8.4-1.9c0.4-0.1,1,0.1,1.3,0.4l3.1,3.2
	c0.3,0.3,0.5,0.9,0.4,1.3l-2.1,8.3c-0.1,0.4,0.1,0.9,0.5,1.2l6.5,3.7c0.4,0.2,0.9,0.1,1.2-0.2l6.1-6.1c0.3-0.3,0.9-0.5,1.3-0.3
	l4.3,1c0.4,0.1,0.9,0.5,1,0.9l2.7,8.1c0.1,0.4,0.6,0.7,1,0.8c0,0,0.2,0,0.7,0c2.6,0,6.9-0.6,6.9-0.6c0.4-0.1,0.8-0.4,0.9-0.8
	l1.8-8.5c0.1-0.4,0.5-0.9,0.9-1l3.8-1.4c0.4-0.2,1-0.1,1.3,0.2l6.6,5.4c0.3,0.3,0.9,0.3,1.2,0.1l6.2-4.7c0.3-0.3,0.5-0.8,0.3-1.2
	l-3.1-8.2c-0.1-0.4-0.1-1,0.2-1.3l2.1-2.8c0.2-0.3,0.8-0.6,1.2-0.6l8.5,0.9c0.4,0,0.9-0.2,1.1-0.6l2.8-7.6c0.1-0.4-0.1-0.9-0.4-1.2
	l-7.1-5.2c-0.3-0.3-0.6-0.8-0.6-1.2L1071.2,862.4L1071.2,862.4z M1036.2,887.5c-14.2,0-25.8-11.5-25.8-25.8s11.5-25.8,25.8-25.8
	c14.3,0,25.8,11.5,25.8,25.8S1050.4,887.5,1036.2,887.5z"/>
<path class="st1" d="M303,856.5c0-0.6,0.5-1.3,1-1.5l10.6-5.3c0.5-0.3,0.9-0.9,0.8-1.5l-2.5-11.3c-0.1-0.6-0.8-1.1-1.3-1.1
	l-12.1-0.8c-0.6,0-1.3-0.5-1.5-1l-1.6-3c-0.3-0.5-0.3-1.3,0-1.8l6.1-10.3c0.3-0.5,0.2-1.3-0.1-1.7l-8.2-8.4
	c-0.4-0.4-1.2-0.5-1.7-0.2l-10.5,5.8c-0.5,0.3-1.3,0.3-1.8,0l-2.8-1.6c-0.5-0.3-0.9-1-1-1.6l-0.4-12.1c0-0.6-0.5-1.2-1.1-1.4
	l-11.4-2.7c-0.6-0.1-1.3,0.2-1.5,0.7l-5.7,10.5c-0.3,0.5-0.7,0.9-1,0.9H255c-1.6,0-3.8,0.2-3.8,0.2c-0.6,0-1.3-0.3-1.7-0.8l-6.9-10
	c-0.3-0.5-1.1-0.7-1.6-0.6l-10.9,3.7c-0.5,0.2-0.9,0.9-0.9,1.5l0.9,11.8c0,0.6-0.3,1.3-0.8,1.6l-3.5,2.4c-0.5,0.4-1.3,0.4-1.8,0.2
	l-11.1-4.6c-0.5-0.2-1.3-0.1-1.7,0.4l-7,8.7c-0.3,0.5-0.3,1.2,0,1.7l7.1,9.4c0.4,0.5,0.4,1.3,0.2,1.8l-1.9,4.7
	c-0.2,0.5-0.8,1.1-1.4,1.2l-11.9,2.1c-0.6,0.1-1.1,0.7-1.2,1.2c0,0-1.2,7.3-1.2,11.7l0,0c0,0,0.4,0.2,1,0.4l11.1,4.1
	c0.6,0.2,1.1,0.8,1.2,1.4l1,5.7c0.1,0.6-0.1,1.4-0.5,1.8l-8.8,8.2c-0.4,0.4-0.6,1.2-0.3,1.7l4.8,9.3c0.3,0.5,1,0.8,1.6,0.7l11.6-2.6
	c0.6-0.1,1.4,0.1,1.7,0.6l4.3,4.4c0.4,0.4,0.7,1.2,0.5,1.8l-2.9,11.5c-0.1,0.6,0.1,1.3,0.6,1.6l9,5.1c0.5,0.3,1.3,0.1,1.7-0.3
	l8.4-8.5c0.4-0.4,1.2-0.6,1.8-0.5l6,1.3c0.6,0.1,1.2,0.6,1.4,1.2l3.7,11.2c0.2,0.6,0.8,1,1.4,1c0,0,0.3,0,1,0c3.6,0,9.5-0.8,9.5-0.8
	c0.6-0.1,1.2-0.6,1.3-1.2l2.5-11.8c0.1-0.6,0.7-1.2,1.2-1.4l5.2-2c0.5-0.2,1.4-0.1,1.8,0.2l9.2,7.4c0.4,0.4,1.2,0.4,1.7,0.1l8.6-6.5
	c0.4-0.4,0.6-1.1,0.4-1.7l-4.3-11.3c-0.2-0.5-0.1-1.4,0.3-1.8l2.8-3.9c0.3-0.5,1.1-0.8,1.7-0.8l11.8,1.3c0.6,0.1,1.2-0.3,1.5-0.9
	l3.9-10.5c0.2-0.6-0.1-1.3-0.5-1.7l-9.7-7.2c-0.5-0.4-0.8-1.1-0.8-1.7L303,856.5L303,856.5z M254.7,891.3
	c-19.7,0-35.6-15.9-35.6-35.6C219,836,235,820,254.7,820s35.6,15.9,35.6,35.6C290.3,875.3,274.3,891.3,254.7,891.3z"/>
<path class="st1" d="M1813.2,934.3c0-0.6,0.5-1.3,1-1.5l10.4-5.2c0.5-0.3,0.9-0.9,0.8-1.5L1823,915c-0.1-0.5-0.7-1-1.3-1.1
	l-11.8-0.8c-0.6,0-1.3-0.5-1.5-1l-1.6-3c-0.3-0.5-0.3-1.3,0-1.8l6-10.1c0.3-0.5,0.2-1.3-0.1-1.7l-8.1-8.2c-0.4-0.4-1.2-0.5-1.7-0.2
	l-10.3,5.7c-0.5,0.3-1.3,0.3-1.8,0l-2.8-1.6c-0.5-0.3-0.9-1-1-1.5l-0.4-11.8c0-0.6-0.5-1.2-1-1.4l-11.2-2.7
	c-0.6-0.1-1.2,0.2-1.5,0.7l-5.5,10.3c-0.3,0.5-0.7,0.9-1,0.9h-0.3c-1.6,0-3.7,0.2-3.7,0.2c-0.6,0-1.3-0.3-1.6-0.8l-6.8-9.8
	c-0.3-0.5-1-0.7-1.6-0.6l-10.7,3.6c-0.5,0.2-0.9,0.9-0.9,1.4l0.9,11.6c0,0.6-0.3,1.3-0.8,1.6l-3.4,2.4c-0.5,0.3-1.3,0.4-1.8,0.2
	l-10.9-4.5c-0.5-0.2-1.3-0.1-1.7,0.4l-6.8,8.5c-0.3,0.5-0.3,1.2,0,1.7l7,9.2c0.3,0.5,0.4,1.3,0.2,1.8l-1.9,4.6
	c-0.2,0.5-0.8,1.1-1.4,1.2l-11.7,2.1c-0.6,0.1-1.1,0.7-1.2,1.2c0,0-1.1,7.2-1.1,11.4l0,0c0,0,0.4,0.2,1,0.4l10.9,4
	c0.5,0.2,1,0.8,1.1,1.4l1,5.6c0.1,0.6-0.1,1.3-0.5,1.7l-8.6,8c-0.4,0.4-0.6,1.1-0.3,1.7l4.7,9.1c0.3,0.5,1,0.8,1.6,0.7l11.3-2.6
	c0.6-0.1,1.3,0.1,1.7,0.5l4.2,4.3c0.4,0.4,0.6,1.2,0.5,1.7l-2.9,11.3c-0.1,0.5,0.1,1.3,0.6,1.6l8.8,5c0.5,0.3,1.3,0.1,1.7-0.3
	l8.2-8.3c0.4-0.4,1.2-0.6,1.7-0.5l5.8,1.3c0.6,0.1,1.2,0.6,1.4,1.2l3.7,11c0.2,0.5,0.8,1,1.4,1c0,0,0.3,0,1,0c3.5,0,9.3-0.7,9.3-0.7
	c0.6-0.1,1.1-0.6,1.2-1.1l2.4-11.5c0.1-0.6,0.7-1.2,1.2-1.4l5.1-2c0.5-0.2,1.3-0.1,1.8,0.2l9,7.3c0.4,0.4,1.2,0.4,1.7,0.1l8.5-6.4
	c0.4-0.4,0.6-1.1,0.4-1.6l-4.2-11.1c-0.2-0.5-0.1-1.4,0.3-1.8l2.8-3.8c0.3-0.5,1.1-0.8,1.6-0.7l11.5,1.2c0.6,0.1,1.2-0.3,1.4-0.8
	l3.8-10.3c0.2-0.5-0.1-1.3-0.5-1.6l-9.6-7.1c-0.5-0.3-0.8-1.1-0.7-1.7L1813.2,934.3L1813.2,934.3z M1765.8,968.3
	c-19.3,0-34.9-15.6-34.9-34.9s15.6-34.9,34.9-34.9s34.9,15.6,34.9,34.9S1785,968.3,1765.8,968.3z"/>
<path class="st2" d="M451.5,625.1c0-0.5,0.4-1.1,0.8-1.3l9.1-4.6c0.4-0.2,0.7-0.8,0.7-1.3l-2.1-9.7c-0.1-0.5-0.7-0.9-1.1-0.9
	l-10.3-0.7c-0.5,0-1.1-0.4-1.3-0.9l-1.4-2.6c-0.3-0.4-0.3-1.1,0-1.6l5.2-8.8c0.3-0.4,0.2-1.1-0.1-1.5l-7-7.2c-0.4-0.3-1-0.4-1.5-0.2
	l-9,5c-0.4,0.2-1.1,0.2-1.6,0l-2.4-1.4c-0.4-0.2-0.8-0.8-0.8-1.3l-0.4-10.3c0-0.5-0.4-1-0.9-1.2l-9.7-2.3c-0.5-0.1-1.1,0.2-1.3,0.6
	l-4.8,9c-0.2,0.4-0.6,0.8-0.9,0.8h-0.2c-1.4,0-3.2,0.1-3.2,0.1c-0.5,0-1.1-0.3-1.4-0.7l-5.9-8.5c-0.3-0.4-0.9-0.6-1.4-0.5l-9.3,3.1
	c-0.5,0.2-0.8,0.7-0.8,1.2l0.8,10.1c0,0.5-0.3,1.1-0.7,1.4l-3,2.1c-0.4,0.3-1.1,0.4-1.6,0.2l-9.5-4c-0.5-0.2-1.1,0-1.4,0.3l-6,7.4
	c-0.3,0.4-0.3,1.1,0,1.5l6.1,8.1c0.3,0.4,0.4,1.1,0.2,1.5l-1.7,4c-0.2,0.5-0.7,0.9-1.2,1l-10.2,1.8c-0.5,0.1-1,0.6-1,1.1
	c0,0-1,6.3-1,10l0,0c0,0,0.4,0.2,0.9,0.4l9.5,3.5c0.5,0.2,0.9,0.7,1,1.2l0.9,4.9c0.1,0.5-0.1,1.2-0.5,1.5l-7.5,7
	c-0.4,0.3-0.5,1-0.3,1.4l4.1,7.9c0.3,0.4,0.9,0.7,1.4,0.6l9.9-2.2c0.5-0.1,1.2,0.1,1.5,0.5l3.6,3.8c0.4,0.4,0.6,1,0.4,1.5l-2.5,9.9
	c-0.1,0.5,0.1,1.1,0.5,1.4l7.7,4.3c0.4,0.2,1.1,0.1,1.4-0.2l7.2-7.3c0.4-0.4,1-0.5,1.5-0.4l5.1,1.1c0.5,0.1,1,0.5,1.2,1l3.2,9.6
	c0.2,0.5,0.7,0.9,1.2,0.9c0,0,0.3,0,0.9,0c3.1,0,8.1-0.7,8.1-0.7c0.5-0.1,1-0.5,1.1-1l2.1-10.1c0.1-0.5,0.6-1,1.1-1.2l4.5-1.7
	c0.5-0.2,1.2-0.1,1.5,0.2l7.9,6.3c0.4,0.3,1.1,0.3,1.5,0.1l7.4-5.6c0.4-0.3,0.5-1,0.4-1.4l-3.7-9.7c-0.2-0.5-0.1-1.2,0.2-1.6
	l2.4-3.3c0.3-0.4,0.9-0.7,1.4-0.7l10.1,1.1c0.5,0,1.1-0.3,1.3-0.7l3.3-9c0.1-0.5-0.1-1.1-0.5-1.4L452,630c-0.4-0.3-0.7-1-0.7-1.4
	L451.5,625.1L451.5,625.1z M410.1,654.8c-16.8,0-30.5-13.7-30.5-30.5s13.7-30.5,30.5-30.5s30.5,13.7,30.5,30.5
	S427,654.8,410.1,654.8z"/>
<path class="st2" d="M1451.9,603.9c0-0.7,0.5-1.5,1.2-1.8l12.5-6.2c0.6-0.3,1-1.1,0.9-1.8l-2.9-13.3c-0.2-0.7-0.9-1.2-1.6-1.3
	l-14.2-0.9c-0.7,0-1.5-0.6-1.8-1.2l-1.9-3.5c-0.3-0.6-0.3-1.6,0-2.2l7.2-12.1c0.3-0.6,0.3-1.5-0.2-2l-9.7-9.8
	c-0.5-0.5-1.4-0.6-2-0.2l-12.3,6.9c-0.6,0.3-1.6,0.3-2.2,0l-3.3-1.9c-0.6-0.3-1.1-1.2-1.2-1.8l-0.5-14.2c0-0.7-0.6-1.4-1.2-1.6
	l-13.4-3.2c-0.7-0.1-1.5,0.3-1.8,0.9l-6.6,12.4c-0.3,0.6-0.9,1.1-1.2,1.1h-0.3c-1.9,0-4.5,0.2-4.5,0.2c-0.7,0-1.6-0.4-2-0.9
	l-8.1-11.7c-0.4-0.6-1.2-0.9-1.9-0.7l-12.8,4.3c-0.6,0.3-1.1,1-1.1,1.7l1.1,13.9c0,0.7-0.4,1.6-1,1.9l-4.1,2.8
	c-0.5,0.4-1.5,0.5-2.2,0.3l-13.1-5.4c-0.6-0.3-1.5-0.1-2,0.5l-8.2,10.2c-0.4,0.5-0.4,1.5,0,2l8.4,11c0.4,0.5,0.5,1.5,0.2,2.1
	l-2.3,5.5c-0.2,0.6-1,1.3-1.7,1.4l-14,2.5c-0.7,0.1-1.3,0.8-1.4,1.5c0,0-1.4,8.6-1.4,13.7l0,0c0,0,0.5,0.2,1.2,0.5l13,4.8
	c0.7,0.2,1.2,1,1.4,1.7l1.2,6.7c0.2,0.7-0.1,1.6-0.6,2.1l-10.3,9.6c-0.5,0.5-0.7,1.4-0.4,2l5.6,10.9c0.3,0.6,1.2,1,1.9,0.8l13.6-3.1
	c0.7-0.2,1.6,0.2,2.1,0.7l5,5.2c0.5,0.5,0.8,1.4,0.6,2.1l-3.5,13.5c-0.2,0.7,0.2,1.5,0.7,1.9l10.6,6c0.6,0.3,1.5,0.2,2-0.3l9.8-10
	c0.5-0.5,1.4-0.7,2.1-0.6l7,1.6c0.7,0.1,1.4,0.7,1.6,1.4l4.4,13.2c0.2,0.7,1,1.2,1.6,1.2c0,0,0.4,0,1.2,0c4.2,0,11.1-0.9,11.1-0.9
	c0.7-0.1,1.4-0.7,1.5-1.4l2.9-13.8c0.1-0.7,0.8-1.4,1.4-1.6l6.2-2.3c0.6-0.3,1.6-0.1,2.1,0.3l10.8,8.7c0.5,0.4,1.4,0.5,2,0.1
	l10.1-7.7c0.5-0.4,0.7-1.3,0.5-2l-5-13.3c-0.2-0.6-0.1-1.6,0.3-2.1l3.3-4.6c0.4-0.6,1.3-1,1.9-0.9l13.8,1.5c0.7,0.1,1.5-0.4,1.7-1
	l4.5-12.4c0.2-0.7-0.1-1.5-0.6-1.9l-11.4-8.5c-0.5-0.4-1-1.3-0.9-2L1451.9,603.9L1451.9,603.9z M1395.1,644.7
	c-23.1,0-41.8-18.7-41.8-41.8s18.7-41.8,41.8-41.8c23.1,0,41.8,18.7,41.8,41.8S1418.2,644.7,1395.1,644.7z"/>
<path class="st2" d="M1948.4,450.2c0-0.5,0.4-1.1,0.8-1.3l9.1-4.6c0.4-0.2,0.7-0.8,0.7-1.3l-2.1-9.7c-0.1-0.5-0.7-0.9-1.1-0.9
	l-10.3-0.7c-0.5,0-1.1-0.4-1.3-0.9l-1.4-2.6c-0.3-0.4-0.3-1.1,0-1.6l5.2-8.8c0.3-0.4,0.2-1.1-0.1-1.5l-7-7.2c-0.4-0.3-1-0.4-1.5-0.2
	l-9,5c-0.4,0.2-1.1,0.2-1.6,0l-2.4-1.4c-0.4-0.2-0.8-0.8-0.8-1.3L1925,401c0-0.5-0.4-1-0.9-1.2l-9.7-2.3c-0.5-0.1-1.1,0.2-1.3,0.6
	l-4.8,9c-0.2,0.4-0.6,0.8-0.9,0.8h-0.2c-1.4,0-3.2,0.1-3.2,0.1c-0.5,0-1.1-0.3-1.4-0.7l-5.9-8.5c-0.3-0.4-0.9-0.6-1.4-0.5l-9.3,3.1
	c-0.5,0.2-0.8,0.7-0.8,1.2l0.8,10.1c0,0.5-0.3,1.1-0.7,1.4l-3,2.1c-0.4,0.3-1.1,0.4-1.6,0.2l-9.5-4c-0.5-0.2-1.1,0-1.4,0.3l-6,7.4
	c-0.3,0.4-0.3,1.1,0,1.5l6.1,8.1c0.3,0.4,0.4,1.1,0.2,1.5l-1.7,4c-0.2,0.5-0.7,0.9-1.2,1L1857,438c-0.5,0.1-1,0.6-1,1.1
	c0,0-1,6.3-1,10l0,0c0,0,0.4,0.2,0.9,0.4l9.5,3.5c0.5,0.2,0.9,0.7,1,1.2l0.9,4.9c0.1,0.5-0.1,1.2-0.5,1.5l-7.5,7
	c-0.4,0.3-0.5,1-0.3,1.4l4.1,7.9c0.3,0.4,0.9,0.7,1.4,0.6l9.9-2.2c0.5-0.1,1.2,0.1,1.5,0.5l3.6,3.8c0.4,0.4,0.6,1,0.4,1.5l-2.5,9.9
	c-0.1,0.5,0.1,1.1,0.5,1.4l7.7,4.3c0.4,0.2,1.1,0.1,1.4-0.2l7.2-7.3c0.4-0.4,1-0.5,1.5-0.4l5.1,1.1c0.5,0.1,1,0.5,1.2,1l3.2,9.6
	c0.2,0.5,0.7,0.9,1.2,0.9c0,0,0.3,0,0.9,0c3.1,0,8.1-0.7,8.1-0.7c0.5-0.1,1-0.5,1.1-1l2.1-10.1c0.1-0.5,0.6-1,1.1-1.2l4.5-1.7
	c0.5-0.2,1.2-0.1,1.5,0.2l7.9,6.3c0.4,0.3,1.1,0.3,1.5,0.1l7.4-5.6c0.4-0.3,0.5-1,0.4-1.4l-3.7-9.7c-0.2-0.5-0.1-1.2,0.2-1.6
	l2.4-3.3c0.3-0.4,0.9-0.7,1.4-0.7l10.1,1.1c0.5,0,1.1-0.3,1.3-0.7l3.3-9c0.1-0.5-0.1-1.1-0.5-1.4l-8.3-6.2c-0.4-0.3-0.7-1-0.7-1.4
	L1948.4,450.2L1948.4,450.2z M1906.9,479.9c-16.8,0-30.5-13.7-30.5-30.5s13.7-30.5,30.5-30.5s30.5,13.7,30.5,30.5
	C1937.4,466.3,1923.8,479.9,1906.9,479.9z"/>
<path class="st2" d="M209,511c0-0.4,0.3-0.9,0.7-1.1l7.3-3.7c0.4-0.2,0.6-0.7,0.5-1l-1.7-7.8c-0.1-0.4-0.5-0.7-0.9-0.8l-8.3-0.5
	c-0.4,0-0.9-0.3-1.1-0.7l-1.1-2.1c-0.2-0.3-0.2-0.9,0-1.3l4.2-7.1c0.2-0.3,0.2-0.9-0.1-1.2l-5.7-5.8c-0.3-0.3-0.8-0.3-1.2-0.1
	l-7.2,4c-0.3,0.2-0.9,0.2-1.3,0l-2-1.1c-0.4-0.2-0.7-0.7-0.7-1.1l-0.3-8.3c0-0.4-0.3-0.8-0.7-0.9l-7.8-1.9c-0.4-0.1-0.9,0.2-1.1,0.5
	l-3.9,7.3c-0.2,0.4-0.5,0.6-0.7,0.6h-0.2c-1.1,0-2.6,0.1-2.6,0.1c-0.4,0-0.9-0.2-1.2-0.6l-4.8-6.9c-0.2-0.3-0.7-0.5-1.1-0.4
	l-7.5,2.5c-0.4,0.2-0.7,0.6-0.6,1l0.6,8.1c0,0.4-0.2,0.9-0.6,1.1l-2.4,1.7c-0.3,0.2-0.9,0.3-1.3,0.2l-7.7-3.2
	c-0.4-0.2-0.9,0-1.2,0.3l-4.8,6c-0.2,0.3-0.2,0.9,0,1.2l4.9,6.5c0.2,0.3,0.3,0.9,0.1,1.2l-1.3,3.2c-0.1,0.4-0.6,0.7-1,0.8l-8.2,1.5
	c-0.4,0.1-0.8,0.5-0.8,0.9c0,0-0.8,5-0.8,8l0,0c0,0,0.3,0.1,0.7,0.3l7.6,2.8c0.4,0.1,0.7,0.6,0.8,1l0.7,3.9c0.1,0.4-0.1,0.9-0.4,1.2
	l-6,5.6c-0.3,0.3-0.4,0.8-0.2,1.2l3.3,6.4c0.2,0.3,0.7,0.6,1.1,0.5l8-1.8c0.4-0.1,0.9,0.1,1.2,0.4l2.9,3c0.3,0.3,0.4,0.8,0.3,1.2
	l-2,7.9c-0.1,0.4,0.1,0.9,0.4,1.1l6.2,3.5c0.4,0.2,0.9,0.1,1.2-0.2l5.8-5.8c0.3-0.3,0.8-0.4,1.2-0.3l4.1,0.9
	c0.4,0.1,0.8,0.4,0.9,0.8l2.6,7.7c0.1,0.4,0.6,0.7,1,0.7c0,0,0.2,0,0.7,0c2.5,0,6.5-0.5,6.5-0.5c0.4-0.1,0.8-0.4,0.9-0.8l1.7-8.1
	c0.1-0.4,0.5-0.8,0.8-0.9l3.6-1.4c0.4-0.2,0.9-0.1,1.2,0.2l6.3,5.1c0.3,0.3,0.8,0.3,1.2,0.1l5.9-4.5c0.3-0.3,0.4-0.8,0.3-1.2l-3-7.8
	c-0.1-0.4-0.1-0.9,0.2-1.3l2-2.7c0.2-0.3,0.7-0.6,1.1-0.5l8.1,0.9c0.4,0,0.9-0.2,1-0.6l2.7-7.2c0.1-0.4-0.1-0.9-0.4-1.1l-6.7-5
	c-0.3-0.2-0.6-0.8-0.5-1.2L209,511L209,511z M175.7,534.9c-13.5,0-24.5-11-24.5-24.5s11-24.5,24.5-24.5s24.5,11,24.5,24.5
	S189.2,534.9,175.7,534.9z"/>
<path class="st2" d="M862,625.9c0-0.4,0.3-1,0.7-1.2l8-4c0.4-0.2,0.7-0.7,0.6-1.1l-1.8-8.5c-0.1-0.4-0.6-0.8-1-0.8l-9.1-0.6
	c-0.4,0-1-0.4-1.2-0.8l-1.2-2.3c-0.2-0.4-0.2-1,0-1.4l4.6-7.7c0.2-0.4,0.2-1-0.1-1.3l-6.2-6.3c-0.3-0.3-0.9-0.4-1.3-0.2l-7.9,4.4
	c-0.4,0.2-1,0.2-1.4,0l-2.1-1.2c-0.4-0.2-0.7-0.7-0.7-1.2l-0.3-9.1c0-0.4-0.4-0.9-0.8-1l-8.6-2c-0.4-0.1-1,0.2-1.2,0.6l-4.2,7.9
	c-0.2,0.4-0.6,0.7-0.8,0.7h-0.2c-1.2,0-2.9,0.1-2.9,0.1c-0.4,0-1-0.2-1.3-0.6l-5.2-7.5c-0.3-0.4-0.8-0.6-1.2-0.4l-8.2,2.8
	c-0.4,0.2-0.7,0.7-0.7,1.1l0.7,8.9c0,0.4-0.2,1-0.6,1.2l-2.6,1.8c-0.3,0.3-1,0.3-1.4,0.2l-8.4-3.5c-0.4-0.2-1,0-1.3,0.3l-5.2,6.5
	c-0.3,0.3-0.3,0.9,0,1.3l5.4,7.1c0.3,0.3,0.3,1,0.2,1.4l-1.5,3.5c-0.2,0.4-0.6,0.8-1.1,0.9l-8.9,1.6c-0.4,0.1-0.8,0.5-0.9,0.9
	c0,0-0.9,5.5-0.9,8.8l0,0c0,0,0.3,0.2,0.8,0.3l8.3,3c0.4,0.2,0.8,0.6,0.9,1.1l0.8,4.3c0.1,0.4-0.1,1-0.4,1.3l-6.6,6.1
	c-0.3,0.3-0.4,0.9-0.3,1.3l3.6,7c0.2,0.4,0.8,0.6,1.2,0.5l8.7-2c0.4-0.1,1,0.1,1.3,0.4l3.2,3.3c0.3,0.3,0.5,0.9,0.4,1.3l-2.2,8.7
	c-0.1,0.4,0.1,1,0.5,1.2l6.8,3.8c0.4,0.2,1,0.1,1.3-0.2l6.3-6.4c0.3-0.3,0.9-0.5,1.3-0.4l4.5,1c0.4,0.1,0.9,0.5,1,0.9l2.8,8.4
	c0.1,0.4,0.6,0.8,1,0.8c0,0,0.2,0,0.8,0c2.7,0,7.1-0.6,7.1-0.6c0.4-0.1,0.9-0.5,1-0.9l1.9-8.8c0.1-0.4,0.5-0.9,0.9-1l3.9-1.5
	c0.4-0.2,1-0.1,1.4,0.2l6.9,5.6c0.3,0.3,0.9,0.3,1.3,0.1l6.5-4.9c0.3-0.3,0.5-0.9,0.3-1.3l-3.2-8.5c-0.2-0.4-0.1-1,0.2-1.4l2.1-2.9
	c0.3-0.4,0.8-0.6,1.2-0.6l8.8,1c0.4,0,0.9-0.3,1.1-0.6l2.9-7.9c0.1-0.4-0.1-1-0.4-1.2l-7.3-5.4c-0.3-0.3-0.6-0.8-0.6-1.3L862,625.9
	L862,625.9z M825.7,652c-14.8,0-26.7-12-26.7-26.7s12-26.7,26.7-26.7s26.7,12,26.7,26.7S840.4,652,825.7,652z"/>
<path class="st2" d="M681.9,529.6c0-0.6,0.5-1.3,1-1.6l11-5.5c0.5-0.3,0.9-1,0.8-1.6l-2.5-11.7c-0.2-0.6-0.8-1.1-1.4-1.1l-12.5-0.8
	c-0.6,0-1.3-0.5-1.6-1.1l-1.7-3.1c-0.3-0.5-0.3-1.4,0-1.9l6.3-10.6c0.3-0.5,0.2-1.3-0.2-1.8l-8.5-8.7c-0.4-0.4-1.2-0.5-1.8-0.2
	l-10.9,6c-0.5,0.3-1.4,0.3-1.9,0l-2.9-1.7c-0.5-0.3-1-1-1-1.6l-0.4-12.5c0-0.6-0.5-1.2-1.1-1.4l-11.8-2.8c-0.6-0.1-1.3,0.2-1.6,0.8
	l-5.8,10.9c-0.3,0.5-0.8,1-1.1,1H632c-1.7,0-3.9,0.2-3.9,0.2c-0.6,0-1.4-0.3-1.7-0.8l-7.2-10.3c-0.3-0.5-1.1-0.8-1.7-0.6l-11.2,3.8
	c-0.6,0.2-1,0.9-0.9,1.5l1,12.2c0,0.6-0.3,1.4-0.8,1.7l-3.6,2.5c-0.5,0.4-1.3,0.5-1.9,0.2l-11.5-4.8c-0.6-0.2-1.3-0.1-1.7,0.4
	l-7.2,8.9c-0.3,0.5-0.3,1.3,0,1.8l7.4,9.7c0.4,0.5,0.5,1.3,0.2,1.9l-2,4.8c-0.2,0.6-0.9,1.1-1.5,1.2l-12.3,2.2
	c-0.6,0.1-1.2,0.7-1.2,1.3c0,0-1.2,7.6-1.2,12.1l0,0c0,0,0.5,0.2,1,0.4l11.5,4.2c0.6,0.2,1.1,0.9,1.2,1.5l1.1,5.9
	c0.1,0.6-0.1,1.4-0.6,1.8l-9.1,8.5c-0.4,0.4-0.6,1.2-0.3,1.7l4.9,9.6c0.3,0.5,1,0.8,1.6,0.7l12-2.7c0.6-0.1,1.4,0.1,1.8,0.6l4.4,4.6
	c0.4,0.4,0.7,1.2,0.5,1.8l-3,11.9c-0.2,0.6,0.2,1.3,0.7,1.7l9.3,5.2c0.5,0.3,1.3,0.1,1.7-0.3l8.6-8.8c0.4-0.4,1.2-0.7,1.8-0.5
	l6.2,1.4c0.6,0.1,1.2,0.7,1.4,1.2l3.9,11.6c0.2,0.6,0.8,1.1,1.4,1.1c0,0,0.3,0,1,0c3.7,0,9.8-0.8,9.8-0.8c0.6-0.1,1.2-0.6,1.3-1.2
	l2.6-12.1c0.1-0.6,0.7-1.2,1.3-1.4l5.4-2.1c0.6-0.2,1.4-0.1,1.9,0.2l9.5,7.7c0.5,0.4,1.3,0.4,1.8,0.1l8.9-6.8
	c0.5-0.4,0.7-1.2,0.4-1.7l-4.4-11.7c-0.2-0.6-0.1-1.4,0.3-1.9l2.9-4c0.3-0.5,1.1-0.9,1.7-0.8l12.1,1.3c0.6,0.1,1.3-0.3,1.5-0.9
	l4-10.9c0.2-0.6-0.1-1.3-0.6-1.7l-10.1-7.4c-0.5-0.4-0.8-1.2-0.8-1.7L681.9,529.6L681.9,529.6z M631.9,565.5
	c-20.3,0-36.8-16.5-36.8-36.8s16.5-36.8,36.8-36.8s36.8,16.5,36.8,36.8C668.7,549.1,652.3,565.5,631.9,565.5z"/>
<path class="st2" d="M1256.7,521.2c0-0.4,0.3-0.9,0.7-1.1l7.4-3.7c0.4-0.2,0.6-0.7,0.5-1.1l-1.7-7.9c-0.1-0.4-0.5-0.7-0.9-0.8
	l-8.5-0.5c-0.4,0-0.9-0.4-1.1-0.7l-1.1-2.1c-0.2-0.4-0.2-0.9,0-1.3l4.3-7.2c0.2-0.4,0.2-0.9-0.1-1.2l-5.8-5.9
	c-0.3-0.3-0.8-0.3-1.2-0.1l-7.4,4.1c-0.4,0.2-0.9,0.2-1.3,0l-2-1.1c-0.4-0.2-0.7-0.7-0.7-1.1l-0.3-8.4c0-0.4-0.4-0.8-0.7-1l-8-1.9
	c-0.4-0.1-0.9,0.2-1.1,0.5l-4,7.4c-0.2,0.4-0.5,0.7-0.7,0.7h-0.2c-1.1,0-2.7,0.1-2.7,0.1c-0.4,0-0.9-0.2-1.2-0.6l-4.8-7
	c-0.2-0.3-0.7-0.5-1.1-0.4l-7.6,2.6c-0.4,0.2-0.7,0.6-0.6,1l0.7,8.3c0,0.4-0.2,0.9-0.6,1.1l-2.4,1.7c-0.3,0.2-0.9,0.3-1.3,0.2
	l-7.8-3.2c-0.4-0.2-0.9,0-1.2,0.3l-4.9,6.1c-0.2,0.3-0.2,0.9,0,1.2l5,6.6c0.2,0.3,0.3,0.9,0.1,1.3l-1.4,3.3c-0.1,0.4-0.6,0.8-1,0.8
	l-8.3,1.5c-0.4,0.1-0.8,0.5-0.8,0.9c0,0-0.8,5.1-0.8,8.2l0,0c0,0,0.3,0.1,0.7,0.3l7.8,2.8c0.4,0.1,0.7,0.6,0.8,1l0.7,4
	c0.1,0.4-0.1,1-0.4,1.2l-6.1,5.7c-0.3,0.3-0.4,0.8-0.2,1.2l3.3,6.5c0.2,0.4,0.7,0.6,1.1,0.5l8.1-1.8c0.4-0.1,1,0.1,1.2,0.4l3,3.1
	c0.3,0.3,0.5,0.8,0.4,1.2l-2.1,8.1c-0.1,0.4,0.1,0.9,0.4,1.1l6.3,3.6c0.4,0.2,0.9,0.1,1.2-0.2l5.9-5.9c0.3-0.3,0.8-0.4,1.2-0.3
	l4.2,0.9c0.4,0.1,0.8,0.4,1,0.8l2.6,7.9c0.1,0.4,0.6,0.7,1,0.7c0,0,0.2,0,0.7,0c2.5,0,6.6-0.5,6.6-0.5c0.4-0.1,0.8-0.4,0.9-0.8
	l1.7-8.2c0.1-0.4,0.5-0.8,0.9-1l3.7-1.4c0.4-0.2,1-0.1,1.3,0.2l6.4,5.2c0.3,0.3,0.9,0.3,1.2,0.1l6-4.6c0.3-0.3,0.4-0.8,0.3-1.2
	l-3-7.9c-0.1-0.4-0.1-1,0.2-1.3l2-2.7c0.2-0.3,0.8-0.6,1.2-0.5l8.2,0.9c0.4,0,0.9-0.2,1-0.6l2.7-7.4c0.1-0.4-0.1-0.9-0.4-1.2l-6.8-5
	c-0.3-0.2-0.6-0.8-0.5-1.2L1256.7,521.2L1256.7,521.2z M1222.8,545.5c-13.8,0-24.9-11.2-24.9-24.9c0-13.8,11.2-24.9,24.9-24.9
	s24.9,11.2,24.9,24.9C1247.7,534.4,1236.6,545.5,1222.8,545.5z"/>
<path class="st2" d="M284.4,450c0-0.4,0.3-0.8,0.6-1l6.5-3.3c0.3-0.2,0.5-0.6,0.5-0.9l-1.5-7c-0.1-0.3-0.5-0.7-0.8-0.7l-7.4-0.5
	c-0.4,0-0.8-0.3-1-0.6l-1-1.9c-0.2-0.3-0.2-0.8,0-1.1l3.8-6.3c0.2-0.3,0.1-0.8-0.1-1.1l-5.1-5.2c-0.3-0.2-0.7-0.3-1.1-0.1l-6.5,3.6
	c-0.3,0.2-0.8,0.2-1.1,0l-1.8-1c-0.3-0.2-0.6-0.6-0.6-1l-0.3-7.4c0-0.4-0.3-0.7-0.7-0.8l-7-1.7c-0.4-0.1-0.8,0.1-1,0.5l-3.5,6.5
	c-0.2,0.3-0.5,0.6-0.6,0.6h-0.2c-1,0-2.3,0.1-2.3,0.1c-0.4,0-0.8-0.2-1-0.5l-4.3-6.1c-0.2-0.3-0.7-0.5-1-0.4l-6.7,2.3
	c-0.3,0.1-0.6,0.5-0.6,0.9l0.6,7.3c0,0.4-0.2,0.8-0.5,1l-2.1,1.5c-0.3,0.2-0.8,0.3-1.1,0.1l-6.9-2.9c-0.3-0.1-0.8,0-1,0.2l-4.3,5.3
	c-0.2,0.3-0.2,0.8,0,1.1l4.4,5.8c0.2,0.3,0.3,0.8,0.1,1.1l-1.2,2.9c-0.1,0.3-0.5,0.7-0.9,0.7l-7.3,1.3c-0.4,0.1-0.7,0.4-0.7,0.8
	c0,0-0.7,4.5-0.7,7.2l0,0c0,0,0.3,0.1,0.6,0.3l6.8,2.5c0.3,0.1,0.7,0.5,0.7,0.9l0.6,3.5c0.1,0.4-0.1,0.8-0.3,1.1l-5.4,5
	c-0.3,0.2-0.4,0.7-0.2,1l2.9,5.7c0.2,0.3,0.6,0.5,1,0.4l7.1-1.6c0.4-0.1,0.8,0.1,1.1,0.3l2.6,2.7c0.3,0.3,0.4,0.7,0.3,1.1l-1.8,7.1
	c-0.1,0.3,0.1,0.8,0.4,1l5.6,3.1c0.3,0.2,0.8,0.1,1-0.2l5.2-5.2c0.3-0.3,0.7-0.4,1.1-0.3l3.7,0.8c0.4,0.1,0.7,0.4,0.8,0.7l2.3,6.9
	c0.1,0.3,0.5,0.6,0.9,0.6c0,0,0.2,0,0.6,0c2.2,0,5.8-0.5,5.8-0.5c0.4,0,0.7-0.4,0.8-0.7l1.5-7.2c0.1-0.4,0.4-0.7,0.8-0.8l3.2-1.2
	c0.3-0.1,0.8-0.1,1.1,0.1l5.7,4.6c0.3,0.2,0.8,0.2,1.1,0l5.3-4c0.3-0.2,0.4-0.7,0.3-1l-2.6-7c-0.1-0.3,0-0.8,0.2-1.1l1.8-2.4
	c0.2-0.3,0.7-0.5,1-0.5l7.2,0.8c0.4,0,0.8-0.2,0.9-0.5l2.4-6.5c0.1-0.3,0-0.8-0.3-1l-6-4.4c-0.3-0.2-0.5-0.7-0.5-1L284.4,450
	L284.4,450z M254.6,471.4c-12.1,0-21.9-9.8-21.9-21.9s9.8-21.9,21.9-21.9c12.1,0,21.9,9.8,21.9,21.9
	C276.6,461.6,266.7,471.4,254.6,471.4z"/>
<path class="st2" d="M534.1,479c0-0.7,0.6-1.5,1.2-1.8l12.6-6.3c0.6-0.3,1-1.1,0.9-1.8l-2.9-13.4c-0.2-0.7-0.9-1.3-1.6-1.3
	l-14.3-0.9c-0.7,0-1.5-0.6-1.8-1.2l-1.9-3.6c-0.4-0.6-0.4-1.6,0-2.2l7.2-12.2c0.4-0.6,0.3-1.5-0.2-2l-9.8-10c-0.5-0.5-1.4-0.6-2-0.2
	L509,429c-0.6,0.3-1.6,0.3-2.2,0l-3.4-1.9c-0.6-0.3-1.1-1.2-1.2-1.9l-0.5-14.3c0-0.7-0.6-1.4-1.3-1.6l-13.5-3.2
	c-0.7-0.1-1.5,0.3-1.8,0.9l-6.7,12.5c-0.3,0.6-0.9,1.1-1.2,1.1h-0.3c-1.9,0-4.5,0.2-4.5,0.2c-0.7,0-1.6-0.4-2-1l-8.2-11.8
	c-0.4-0.6-1.3-0.9-1.9-0.7l-12.9,4.4c-0.6,0.3-1.1,1-1.1,1.7l1.1,14.1c0,0.7-0.4,1.6-1,1.9l-4.1,2.9c-0.6,0.4-1.5,0.5-2.2,0.3
	l-13.2-5.5c-0.6-0.3-1.5-0.1-2,0.5l-8.3,10.3c-0.4,0.6-0.4,1.5,0,2l8.5,11.2c0.4,0.6,0.5,1.5,0.2,2.1l-2.3,5.5
	c-0.2,0.6-1,1.3-1.7,1.4l-14.1,2.5c-0.7,0.1-1.3,0.8-1.4,1.5c0,0-1.4,8.7-1.4,13.9l0,0c0,0,0.5,0.2,1.2,0.5l13.2,4.8
	c0.7,0.2,1.3,1,1.4,1.7l1.2,6.7c0.2,0.7-0.1,1.6-0.6,2.1l-10.4,9.7c-0.5,0.5-0.7,1.4-0.4,2l5.7,11c0.4,0.6,1.2,1,1.9,0.8l13.7-3.1
	c0.7-0.2,1.6,0.2,2.1,0.7l5.1,5.3c0.5,0.5,0.8,1.4,0.6,2.1l-3.5,13.7c-0.2,0.7,0.2,1.5,0.8,1.9l10.7,6c0.6,0.3,1.5,0.2,2-0.3
	l9.9-10.1c0.5-0.5,1.4-0.8,2.1-0.6l7.1,1.6c0.7,0.1,1.4,0.8,1.6,1.4L474,549c0.2,0.7,1,1.2,1.7,1.2c0,0,0.4,0,1.2,0
	c4.3,0,11.2-0.9,11.2-0.9c0.7-0.1,1.4-0.7,1.5-1.4l2.9-14c0.1-0.7,0.8-1.4,1.5-1.6l6.2-2.4c0.6-0.3,1.6-0.1,2.1,0.3l10.9,8.8
	c0.5,0.4,1.5,0.5,2,0.1l10.3-7.8c0.5-0.4,0.8-1.3,0.5-2l-5-13.3c-0.2-0.6-0.1-1.6,0.3-2.2l3.4-4.6c0.4-0.6,1.3-1,2-0.9l14,1.5
	c0.7,0.1,1.5-0.4,1.7-1l4.6-12.5c0.2-0.7-0.1-1.5-0.6-2l-11.6-8.6c-0.6-0.4-1-1.3-0.9-2L534.1,479L534.1,479z M476.7,520.3
	c-23.4,0-42.3-18.9-42.3-42.3s18.9-42.3,42.3-42.3S519,454.6,519,478S500,520.3,476.7,520.3z"/>
<path class="st2" d="M1400.8,466.8c0-0.6,0.5-1.3,1-1.6l10.9-5.5c0.5-0.3,0.9-1,0.8-1.6l-2.5-11.6c-0.2-0.6-0.8-1.1-1.4-1.1
	l-12.4-0.8c-0.6,0-1.3-0.5-1.6-1.1l-1.7-3.1c-0.3-0.5-0.3-1.4,0-1.9l6.3-10.6c0.3-0.5,0.2-1.3-0.2-1.8l-8.5-8.6
	c-0.4-0.4-1.2-0.5-1.8-0.2l-10.8,6c-0.5,0.3-1.4,0.3-1.9,0l-2.9-1.7c-0.5-0.3-1-1-1-1.6l-0.4-12.4c0-0.6-0.5-1.2-1.1-1.4l-11.7-2.8
	c-0.6-0.1-1.3,0.2-1.6,0.8l-5.8,10.9c-0.3,0.5-0.8,1-1.1,1h-0.3c-1.7,0-3.9,0.2-3.9,0.2c-0.6,0-1.4-0.3-1.7-0.8l-7.1-10.2
	c-0.3-0.5-1.1-0.8-1.7-0.6l-11.2,3.8c-0.6,0.2-1,0.9-0.9,1.5l1,12.2c0,0.6-0.3,1.4-0.8,1.7l-3.6,2.5c-0.5,0.4-1.3,0.5-1.9,0.2
	l-11.5-4.8c-0.6-0.2-1.3-0.1-1.7,0.4l-7.2,8.9c-0.3,0.5-0.3,1.3,0,1.8l7.3,9.7c0.4,0.5,0.5,1.3,0.2,1.9l-2,4.8
	c-0.2,0.6-0.9,1.1-1.5,1.2l-12.2,2.2c-0.6,0.1-1.1,0.7-1.2,1.3c0,0-1.2,7.5-1.2,12l0,0c0,0,0.5,0.2,1,0.4l11.4,4.2
	c0.6,0.2,1.1,0.9,1.2,1.5l1.1,5.8c0.1,0.6-0.1,1.4-0.6,1.8l-9,8.4c-0.4,0.4-0.6,1.2-0.3,1.7l4.9,9.5c0.3,0.5,1,0.8,1.6,0.7l11.9-2.7
	c0.6-0.1,1.4,0.1,1.8,0.6l4.4,4.6c0.4,0.4,0.7,1.2,0.5,1.8l-3,11.9c-0.2,0.6,0.2,1.3,0.7,1.6l9.3,5.2c0.5,0.3,1.3,0.1,1.7-0.3
	l8.6-8.7c0.4-0.4,1.2-0.7,1.8-0.5l6.1,1.4c0.6,0.1,1.2,0.7,1.4,1.2l3.8,11.5c0.2,0.6,0.8,1.1,1.4,1.1c0,0,0.3,0,1,0
	c3.7,0,9.7-0.8,9.7-0.8c0.6-0.1,1.2-0.6,1.3-1.2l2.5-12.1c0.1-0.6,0.7-1.2,1.3-1.4l5.4-2c0.6-0.2,1.4-0.1,1.9,0.2l9.5,7.6
	c0.5,0.4,1.3,0.4,1.8,0.1l8.9-6.7c0.5-0.4,0.7-1.2,0.4-1.7l-4.4-11.6c-0.2-0.6-0.1-1.4,0.3-1.9l2.9-4c0.3-0.5,1.1-0.9,1.7-0.8
	l12.1,1.3c0.6,0.1,1.3-0.3,1.5-0.9l4-10.8c0.2-0.6-0.1-1.3-0.6-1.7l-10-7.4c-0.5-0.4-0.8-1.1-0.8-1.7L1400.8,466.8L1400.8,466.8z
	 M1351.1,502.6c-20.2,0-36.6-16.4-36.6-36.6s16.4-36.6,36.6-36.6s36.6,16.4,36.6,36.6S1371.3,502.6,1351.1,502.6z"/>
<path class="st2" d="M1513.8,476.4c0-0.4,0.3-0.9,0.7-1.1l7.3-3.7c0.4-0.2,0.6-0.7,0.5-1l-1.7-7.8c-0.1-0.4-0.5-0.7-0.9-0.8
	l-8.3-0.5c-0.4,0-0.9-0.3-1.1-0.7l-1.1-2.1c-0.2-0.3-0.2-0.9,0-1.3l4.2-7.1c0.2-0.3,0.2-0.9-0.1-1.2l-5.7-5.8
	c-0.3-0.3-0.8-0.3-1.2-0.1l-7.2,4c-0.3,0.2-0.9,0.2-1.3,0l-2-1.1c-0.4-0.2-0.7-0.7-0.7-1.1l-0.3-8.3c0-0.4-0.3-0.8-0.7-0.9l-7.8-1.9
	c-0.4-0.1-0.9,0.2-1.1,0.5l-3.9,7.3c-0.2,0.4-0.5,0.6-0.7,0.6h-0.2c-1.1,0-2.6,0.1-2.6,0.1c-0.4,0-0.9-0.2-1.2-0.6l-4.8-6.9
	c-0.2-0.3-0.7-0.5-1.1-0.4l-7.5,2.5c-0.4,0.2-0.7,0.6-0.6,1l0.6,8.1c0,0.4-0.2,0.9-0.6,1.1l-2.4,1.7c-0.3,0.2-0.9,0.3-1.3,0.2
	l-7.7-3.2c-0.4-0.2-0.9,0-1.2,0.3l-4.8,6c-0.2,0.3-0.2,0.9,0,1.2l4.9,6.5c0.2,0.3,0.3,0.9,0.1,1.2l-1.3,3.2c-0.1,0.4-0.6,0.7-1,0.8
	l-8.2,1.5c-0.4,0.1-0.8,0.5-0.8,0.9c0,0-0.8,5-0.8,8l0,0c0,0,0.3,0.1,0.7,0.3l7.6,2.8c0.4,0.1,0.7,0.6,0.8,1l0.7,3.9
	c0.1,0.4-0.1,0.9-0.4,1.2l-6,5.6c-0.3,0.3-0.4,0.8-0.2,1.2l3.3,6.4c0.2,0.3,0.7,0.6,1.1,0.5l8-1.8c0.4-0.1,0.9,0.1,1.2,0.4l2.9,3
	c0.3,0.3,0.4,0.8,0.3,1.2l-2,7.9c-0.1,0.4,0.1,0.9,0.4,1.1l6.2,3.5c0.4,0.2,0.9,0.1,1.2-0.2l5.8-5.8c0.3-0.3,0.8-0.4,1.2-0.3
	l4.1,0.9c0.4,0.1,0.8,0.4,0.9,0.8l2.6,7.7c0.1,0.4,0.6,0.7,1,0.7c0,0,0.2,0,0.7,0c2.5,0,6.5-0.5,6.5-0.5c0.4-0.1,0.8-0.4,0.9-0.8
	l1.7-8.1c0.1-0.4,0.5-0.8,0.8-0.9l3.6-1.4c0.4-0.2,0.9-0.1,1.2,0.2l6.3,5.1c0.3,0.3,0.8,0.3,1.2,0.1l5.9-4.5
	c0.3-0.3,0.4-0.8,0.3-1.2l-3-7.8c-0.1-0.4-0.1-0.9,0.2-1.3l2-2.7c0.2-0.3,0.7-0.6,1.1-0.5l8.1,0.9c0.4,0,0.9-0.2,1-0.6l2.7-7.2
	c0.1-0.4-0.1-0.9-0.4-1.1l-6.7-5c-0.3-0.2-0.6-0.8-0.5-1.2L1513.8,476.4L1513.8,476.4z M1480.5,500.3c-13.5,0-24.5-11-24.5-24.5
	s11-24.5,24.5-24.5s24.5,11,24.5,24.5S1494,500.3,1480.5,500.3z"/>
<path class="st2" d="M1638.4,529.2c0-0.5,0.4-1.1,0.8-1.3l9.1-4.6c0.4-0.2,0.7-0.8,0.7-1.3l-2.1-9.7c-0.1-0.5-0.7-0.9-1.1-0.9
	l-10.3-0.7c-0.5,0-1.1-0.4-1.3-0.9l-1.4-2.6c-0.3-0.4-0.3-1.1,0-1.6l5.2-8.8c0.3-0.4,0.2-1.1-0.1-1.5l-7-7.2c-0.4-0.3-1-0.4-1.5-0.2
	l-9,5c-0.4,0.2-1.1,0.2-1.6,0l-2.4-1.4c-0.4-0.2-0.8-0.8-0.8-1.3l-0.4-10.3c0-0.5-0.4-1-0.9-1.2l-9.7-2.3c-0.5-0.1-1.1,0.2-1.3,0.6
	l-4.8,9c-0.2,0.4-0.6,0.8-0.9,0.8h-0.2c-1.4,0-3.2,0.1-3.2,0.1c-0.5,0-1.1-0.3-1.4-0.7l-5.9-8.5c-0.3-0.4-0.9-0.6-1.4-0.5l-9.3,3.1
	c-0.5,0.2-0.8,0.7-0.8,1.2l0.8,10.1c0,0.5-0.3,1.1-0.7,1.4l-3,2.1c-0.4,0.3-1.1,0.4-1.6,0.2l-9.5-4c-0.5-0.2-1.1,0-1.4,0.3l-6,7.4
	c-0.3,0.4-0.3,1.1,0,1.5l6.1,8.1c0.3,0.4,0.4,1.1,0.2,1.5l-1.7,4c-0.2,0.5-0.7,0.9-1.2,1l-10.2,1.8c-0.5,0.1-1,0.6-1,1.1
	c0,0-1,6.3-1,10l0,0c0,0,0.4,0.2,0.9,0.4l9.5,3.5c0.5,0.2,0.9,0.7,1,1.2l0.9,4.9c0.1,0.5-0.1,1.2-0.5,1.5l-7.5,7
	c-0.4,0.3-0.5,1-0.3,1.4l4.1,7.9c0.3,0.4,0.9,0.7,1.4,0.6l9.9-2.2c0.5-0.1,1.2,0.1,1.5,0.5l3.6,3.8c0.4,0.4,0.6,1,0.4,1.5l-2.5,9.9
	c-0.1,0.5,0.1,1.1,0.5,1.4l7.7,4.3c0.4,0.2,1.1,0.1,1.4-0.2l7.2-7.3c0.4-0.4,1-0.5,1.5-0.4l5.1,1.1c0.5,0.1,1,0.5,1.2,1l3.2,9.6
	c0.2,0.5,0.7,0.9,1.2,0.9c0,0,0.3,0,0.9,0c3.1,0,8.1-0.7,8.1-0.7c0.5-0.1,1-0.5,1.1-1l2.1-10.1c0.1-0.5,0.6-1,1.1-1.2l4.5-1.7
	c0.5-0.2,1.2-0.1,1.5,0.2l7.9,6.3c0.4,0.3,1.1,0.3,1.5,0.1l7.4-5.6c0.4-0.3,0.5-1,0.4-1.4l-3.7-9.7c-0.2-0.5-0.1-1.2,0.2-1.6
	l2.4-3.3c0.3-0.4,0.9-0.7,1.4-0.7l10.1,1.1c0.5,0,1.1-0.3,1.3-0.7l3.3-9c0.1-0.5-0.1-1.1-0.5-1.4l-8.3-6.2c-0.4-0.3-0.7-1-0.7-1.4
	L1638.4,529.2L1638.4,529.2z M1597,559c-16.8,0-30.5-13.7-30.5-30.5s13.7-30.5,30.5-30.5s30.5,13.7,30.5,30.5S1613.8,559,1597,559z"
	/>
<path class="st2" d="M140.7,438.8c0-0.5,0.4-1.1,0.8-1.3l9.1-4.6c0.4-0.2,0.7-0.8,0.7-1.3l-2.1-9.7c-0.1-0.5-0.7-0.9-1.1-0.9
	l-10.3-0.7c-0.5,0-1.1-0.4-1.3-0.9l-1.4-2.6c-0.3-0.4-0.3-1.1,0-1.6l5.2-8.8c0.3-0.4,0.2-1.1-0.1-1.5l-7-7.2c-0.4-0.3-1-0.4-1.5-0.2
	l-9,5c-0.4,0.2-1.1,0.2-1.6,0l-2.4-1.4c-0.4-0.2-0.8-0.8-0.8-1.3l-0.4-10.3c0-0.5-0.4-1-0.9-1.2l-9.7-2.3c-0.5-0.1-1.1,0.2-1.3,0.6
	l-4.8,9c-0.2,0.4-0.6,0.8-0.9,0.8h-0.2c-1.4,0-3.2,0.1-3.2,0.1c-0.5,0-1.1-0.3-1.4-0.7l-5.9-8.5c-0.3-0.4-0.9-0.6-1.4-0.5l-9.3,3.1
	c-0.5,0.2-0.8,0.7-0.8,1.2l0.8,10.1c0,0.5-0.3,1.1-0.7,1.4l-3,2.1c-0.4,0.3-1.1,0.4-1.6,0.2l-9.5-4c-0.5-0.2-1.1,0-1.4,0.3l-6,7.4
	c-0.3,0.4-0.3,1.1,0,1.5l6.1,8.1c0.3,0.4,0.4,1.1,0.2,1.5l-1.7,4c-0.2,0.5-0.7,0.9-1.2,1l-10.2,1.8c-0.5,0.1-1,0.6-1,1.1
	c0,0-1,6.3-1,10l0,0c0,0,0.4,0.2,0.9,0.4l9.5,3.5c0.5,0.2,0.9,0.7,1,1.2l0.9,4.9c0.1,0.5-0.1,1.2-0.5,1.5l-7.5,7
	c-0.4,0.3-0.5,1-0.3,1.4l4.1,7.9c0.3,0.4,0.9,0.7,1.4,0.6l9.9-2.2c0.5-0.1,1.2,0.1,1.5,0.5l3.6,3.8c0.4,0.4,0.6,1,0.4,1.5l-2.5,9.9
	c-0.1,0.5,0.1,1.1,0.5,1.4l7.7,4.3c0.4,0.2,1.1,0.1,1.4-0.2l7.2-7.3c0.4-0.4,1-0.5,1.5-0.4l5.1,1.1c0.5,0.1,1,0.5,1.2,1l3.2,9.6
	c0.2,0.5,0.7,0.9,1.2,0.9c0,0,0.3,0,0.9,0c3.1,0,8.1-0.7,8.1-0.7c0.5-0.1,1-0.5,1.1-1l2.1-10.1c0.1-0.5,0.6-1,1.1-1.2l4.5-1.7
	c0.5-0.2,1.2-0.1,1.5,0.2l7.9,6.3c0.4,0.3,1.1,0.3,1.5,0.1l7.4-5.6c0.4-0.3,0.5-1,0.4-1.4l-3.7-9.7c-0.2-0.5-0.1-1.2,0.2-1.6
	l2.4-3.3c0.3-0.4,0.9-0.7,1.4-0.7l10.1,1.1c0.5,0,1.1-0.3,1.3-0.7l3.3-9c0.1-0.5-0.1-1.1-0.5-1.4l-8.3-6.2c-0.4-0.3-0.7-1-0.7-1.4
	L140.7,438.8L140.7,438.8z M99.3,468.6c-16.8,0-30.5-13.7-30.5-30.5s13.7-30.5,30.5-30.5s30.5,13.7,30.5,30.5
	S116.2,468.6,99.3,468.6z"/>
<path class="st2" d="M1743.3,629.8c0-0.6,0.5-1.4,1-1.6l11.3-5.6c0.6-0.3,0.9-1,0.8-1.6l-2.6-12c-0.2-0.6-0.8-1.1-1.4-1.2l-12.8-0.8
	c-0.6,0-1.4-0.5-1.6-1.1l-1.7-3.2c-0.3-0.5-0.3-1.4,0-2l6.5-10.9c0.3-0.5,0.2-1.4-0.2-1.8l-8.7-8.9c-0.5-0.4-1.3-0.5-1.8-0.2
	l-11.1,6.2c-0.5,0.3-1.4,0.3-2,0l-3-1.7c-0.6-0.3-1-1-1-1.7l-0.5-12.8c0-0.6-0.5-1.3-1.1-1.5l-12.1-2.9c-0.6-0.1-1.3,0.2-1.6,0.8
	l-6,11.2c-0.3,0.6-0.8,1-1.1,1h-0.3c-1.7,0-4,0.2-4,0.2c-0.6,0-1.4-0.3-1.8-0.8l-7.3-10.5c-0.4-0.5-1.1-0.8-1.7-0.6l-11.5,3.9
	c-0.6,0.2-1,0.9-1,1.5l1,12.5c0,0.6-0.3,1.4-0.9,1.7l-3.7,2.5c-0.5,0.4-1.4,0.5-2,0.2l-11.8-4.9c-0.6-0.2-1.4-0.1-1.8,0.4l-7.4,9.2
	c-0.4,0.5-0.4,1.3,0,1.8l7.6,10c0.4,0.5,0.5,1.4,0.2,1.9l-2.1,4.9c-0.2,0.6-0.9,1.1-1.5,1.3L1630,615c-0.6,0.1-1.2,0.7-1.3,1.3
	c0,0-1.2,7.7-1.2,12.4l0,0c0,0,0.5,0.2,1.1,0.4l11.7,4.3c0.6,0.2,1.1,0.9,1.2,1.5l1.1,6c0.1,0.6-0.1,1.4-0.6,1.9l-9.3,8.7
	c-0.5,0.4-0.6,1.2-0.4,1.8l5.1,9.8c0.3,0.5,1.1,0.9,1.7,0.7l12.3-2.8c0.6-0.1,1.4,0.1,1.9,0.6l4.5,4.7c0.5,0.4,0.7,1.3,0.5,1.9
	l-3.1,12.2c-0.2,0.6,0.2,1.4,0.7,1.7l9.6,5.4c0.6,0.3,1.4,0.1,1.8-0.3l8.9-9c0.4-0.4,1.3-0.7,1.9-0.5l6.3,1.4
	c0.6,0.1,1.3,0.7,1.5,1.3l4,11.9c0.2,0.6,0.9,1.1,1.5,1.1c0,0,0.3,0,1.1,0c3.8,0,10-0.8,10-0.8c0.6-0.1,1.2-0.7,1.3-1.2l2.6-12.5
	c0.1-0.6,0.7-1.3,1.3-1.5l5.6-2.1c0.6-0.2,1.4-0.1,1.9,0.3l9.7,7.8c0.5,0.4,1.3,0.4,1.8,0.1l9.1-6.9c0.5-0.4,0.7-1.2,0.5-1.8
	l-4.6-12c-0.2-0.6-0.1-1.5,0.3-1.9l3-4.1c0.4-0.5,1.1-0.9,1.8-0.8l12.5,1.3c0.6,0.1,1.3-0.4,1.6-0.9l4.1-11.2
	c0.2-0.6-0.1-1.4-0.6-1.8l-10.3-7.6c-0.5-0.4-0.9-1.2-0.8-1.8L1743.3,629.8L1743.3,629.8z M1692,666.7c-20.8,0-37.7-16.9-37.7-37.7
	s16.9-37.7,37.7-37.7s37.7,16.9,37.7,37.7S1712.9,666.7,1692,666.7z"/>
<path class="st1" d="M90.5,571.7c0-0.7,0.6-1.7,1.3-2l13.8-6.9c0.7-0.3,1.1-1.2,1-2l-3.2-14.6c-0.2-0.7-1-1.4-1.7-1.4l-15.7-1
	c-0.7,0-1.7-0.7-2-1.3l-2.1-3.9c-0.4-0.7-0.4-1.7,0-2.4l7.9-13.3c0.4-0.7,0.3-1.7-0.2-2.2l-10.7-10.9c-0.6-0.5-1.6-0.6-2.2-0.3
	L63,516.9c-0.7,0.4-1.7,0.3-2.4,0l-3.7-2.1c-0.7-0.4-1.2-1.3-1.3-2L55,497.2c0-0.7-0.7-1.6-1.4-1.8L39,491.8c-0.7-0.1-1.6,0.3-2,1
	l-7.3,13.7c-0.4,0.7-1,1.2-1.4,1.2h-0.4c-2.1,0-4.9,0.2-4.9,0.2c-0.7,0-1.7-0.4-2.2-1l-9-12.9c-0.4-0.6-1.4-1-2.1-0.8L-4.4,498
	c-0.7,0.3-1.2,1.1-1.2,1.9l1.2,15.3c0,0.7-0.4,1.7-1.1,2.1l-4.5,3.1c-0.6,0.5-1.7,0.6-2.4,0.3l-14.5-6c-0.7-0.3-1.7-0.1-2.2,0.5
	l-9.1,11.2c-0.4,0.6-0.4,1.6,0,2.2l9.3,12.2c0.5,0.6,0.6,1.7,0.3,2.3l-2.5,6c-0.3,0.7-1.1,1.4-1.8,1.5l-15.4,2.8
	c-0.7,0.1-1.4,0.9-1.6,1.6c0,0-1.5,9.5-1.5,15.1l0,0c0,0,0.6,0.3,1.3,0.5l14.4,5.3c0.7,0.3,1.4,1.1,1.5,1.8l1.4,7.4
	c0.2,0.7-0.1,1.8-0.7,2.3L-44.9,598c-0.6,0.5-0.7,1.5-0.4,2.2l6.2,12c0.4,0.7,1.3,1.1,2.1,0.9l15-3.4c0.7-0.2,1.8,0.2,2.3,0.7
	l5.5,5.7c0.6,0.5,0.8,1.5,0.7,2.3l-3.8,15c-0.2,0.7,0.2,1.7,0.8,2.1l11.7,6.6c0.7,0.3,1.7,0.2,2.2-0.4l10.9-11
	c0.5-0.5,1.6-0.8,2.3-0.6l7.7,1.7c0.7,0.1,1.5,0.8,1.8,1.5l4.9,14.6c0.2,0.7,1.1,1.3,1.8,1.4c0,0,0.4,0,1.3,0c4.7,0,12.3-1,12.3-1
	c0.7-0.1,1.5-0.8,1.6-1.5l3.2-15.3c0.1-0.7,0.9-1.5,1.6-1.8l6.8-2.6c0.7-0.3,1.8-0.1,2.3,0.3l11.9,9.6c0.6,0.5,1.6,0.5,2.2,0.1
	l11.2-8.5c0.6-0.5,0.8-1.5,0.6-2.2l-5.6-14.6c-0.3-0.7-0.1-1.8,0.4-2.4l3.7-5c0.4-0.6,1.4-1.1,2.1-1l15.3,1.6
	c0.7,0.1,1.6-0.4,1.9-1.1l5-13.7c0.2-0.7-0.1-1.7-0.7-2.1l-12.6-9.3c-0.6-0.5-1.1-1.4-1-2.2L90.5,571.7L90.5,571.7z M27.7,616.8
	c-25.5,0-46.2-20.7-46.2-46.2s20.7-46.2,46.2-46.2s46.2,20.7,46.2,46.2S53.2,616.8,27.7,616.8z"/>
<path class="st1" d="M347.6,598.8c0-0.4,0.4-1,0.8-1.2l8.9-4.1c0.4-0.2,0.7-0.7,0.7-1.2l-2.1-8.6c-0.1-0.4-0.6-0.8-1.1-0.8
	l-10.1-0.6c-0.5,0-1.1-0.4-1.3-0.8l-1.4-2.3c-0.2-0.4-0.2-1,0-1.4l5.1-7.8c0.2-0.4,0.2-1-0.1-1.3l-6.9-6.4c-0.4-0.3-1-0.4-1.4-0.2
	l-8.8,4.4c-0.4,0.2-1.1,0.2-1.5,0l-2.4-1.2c-0.4-0.2-0.8-0.8-0.8-1.2l-0.4-9.2c0-0.4-0.4-0.9-0.9-1l-9.5-2.1
	c-0.5-0.1-1.1,0.2-1.3,0.6l-4.7,8c-0.2,0.4-0.6,0.7-0.9,0.7h-0.2c-1.4,0-3.2,0.1-3.2,0.1c-0.5,0-1.1-0.2-1.4-0.6l-5.8-7.6
	c-0.3-0.4-0.9-0.6-1.4-0.5l-9.1,2.8c-0.5,0.2-0.8,0.7-0.8,1.1l0.8,9c0,0.4-0.3,1-0.7,1.2l-2.9,1.8c-0.4,0.3-1.1,0.3-1.5,0.2
	l-9.3-3.5c-0.5-0.2-1.1,0-1.4,0.3l-5.8,6.6c-0.3,0.4-0.3,0.9,0,1.3l6,7.2c0.3,0.4,0.4,1,0.2,1.4l-1.6,3.5c-0.2,0.4-0.7,0.8-1.2,0.9
	l-10,1.6c-0.5,0.1-0.9,0.5-1,0.9c0,0-1,5.6-1,8.9l0,0c0,0,0.4,0.2,0.8,0.3l9.3,3.1c0.5,0.2,0.9,0.6,1,1.1l0.9,4.3
	c0.1,0.4-0.1,1-0.5,1.3l-7.3,6.2c-0.4,0.3-0.5,0.9-0.3,1.3l4,7.1c0.2,0.4,0.8,0.6,1.3,0.5l9.7-2c0.5-0.1,1.1,0.1,1.5,0.4l3.6,3.4
	c0.4,0.3,0.5,0.9,0.4,1.3l-2.5,8.8c-0.1,0.4,0.1,1,0.5,1.2l7.5,3.9c0.4,0.2,1.1,0.1,1.4-0.2l7-6.5c0.3-0.3,1-0.5,1.5-0.4l5,1
	c0.5,0.1,1,0.5,1.2,0.9l3.1,8.5c0.2,0.4,0.7,0.8,1.2,0.8c0,0,0.3,0,0.8,0c3,0,7.9-0.6,7.9-0.6c0.5-0.1,1-0.5,1.1-0.9l2.1-9
	c0.1-0.4,0.6-0.9,1-1l4.4-1.5c0.5-0.2,1.1-0.1,1.5,0.2l7.7,5.6c0.4,0.3,1,0.3,1.4,0.1l7.2-5c0.4-0.3,0.5-0.9,0.4-1.3l-3.6-8.6
	c-0.2-0.4-0.1-1,0.2-1.4l2.4-3c0.3-0.4,0.9-0.6,1.4-0.6l9.8,1c0.5,0,1-0.3,1.2-0.7l3.2-8c0.1-0.4-0.1-1-0.5-1.3l-8.2-5.5
	c-0.4-0.3-0.7-0.9-0.6-1.3L347.6,598.8L347.6,598.8z M307.1,625.3c-16.4,0-29.8-12.1-29.8-27.1s13.3-27.1,29.8-27.1
	s29.8,12.1,29.8,27.1S323.6,625.3,307.1,625.3z"/>
<path class="st2" d="M1095.9,596.9c0-0.4,0.3-0.9,0.7-1.1l7.4-3.7c0.4-0.2,0.6-0.7,0.5-1.1l-1.7-7.9c-0.1-0.4-0.5-0.7-0.9-0.8
	l-8.5-0.5c-0.4,0-0.9-0.4-1.1-0.7l-1.1-2.1c-0.2-0.4-0.2-0.9,0-1.3l4.3-7.2c0.2-0.4,0.2-0.9-0.1-1.2l-5.8-5.9
	c-0.3-0.3-0.8-0.3-1.2-0.1l-7.4,4.1c-0.4,0.2-0.9,0.2-1.3,0l-2-1.1c-0.4-0.2-0.7-0.7-0.7-1.1l-0.3-8.4c0-0.4-0.4-0.8-0.7-1l-8-1.9
	c-0.4-0.1-0.9,0.2-1.1,0.5l-4,7.4c-0.2,0.4-0.5,0.7-0.7,0.7h-0.2c-1.1,0-2.7,0.1-2.7,0.1c-0.4,0-0.9-0.2-1.2-0.6l-4.8-7
	c-0.2-0.3-0.7-0.5-1.1-0.4l-7.6,2.6c-0.4,0.2-0.7,0.6-0.6,1l0.7,8.3c0,0.4-0.2,0.9-0.6,1.1l-2.4,1.7c-0.3,0.2-0.9,0.3-1.3,0.2
	l-7.8-3.2c-0.4-0.2-0.9,0-1.2,0.3l-4.9,6.1c-0.2,0.3-0.2,0.9,0,1.2l5,6.6c0.2,0.3,0.3,0.9,0.1,1.3l-1.4,3.3c-0.1,0.4-0.6,0.8-1,0.8
	l-8.3,1.5c-0.4,0.1-0.8,0.5-0.8,0.9c0,0-0.8,5.1-0.8,8.2l0,0c0,0,0.3,0.1,0.7,0.3l7.8,2.8c0.4,0.1,0.7,0.6,0.8,1l0.7,4
	c0.1,0.4-0.1,1-0.4,1.2l-6.1,5.7c-0.3,0.3-0.4,0.8-0.2,1.2l3.3,6.5c0.2,0.4,0.7,0.6,1.1,0.5l8.1-1.8c0.4-0.1,1,0.1,1.2,0.4l3,3.1
	c0.3,0.3,0.5,0.8,0.4,1.2l-2.1,8.1c-0.1,0.4,0.1,0.9,0.4,1.1l6.3,3.6c0.4,0.2,0.9,0.1,1.2-0.2l5.9-5.9c0.3-0.3,0.8-0.4,1.2-0.3
	l4.2,0.9c0.4,0.1,0.8,0.4,1,0.8l2.6,7.9c0.1,0.4,0.6,0.7,1,0.7c0,0,0.2,0,0.7,0c2.5,0,6.6-0.5,6.6-0.5c0.4-0.1,0.8-0.4,0.9-0.8
	l1.7-8.2c0.1-0.4,0.5-0.8,0.9-1l3.7-1.4c0.4-0.2,1-0.1,1.3,0.2l6.4,5.2c0.3,0.3,0.9,0.3,1.2,0.1l6-4.6c0.3-0.3,0.4-0.8,0.3-1.2
	l-3-7.9c-0.1-0.4-0.1-1,0.2-1.3l2-2.7c0.2-0.3,0.8-0.6,1.2-0.5l8.2,0.9c0.4,0,0.9-0.2,1-0.6l2.7-7.4c0.1-0.4-0.1-0.9-0.4-1.2l-6.8-5
	c-0.3-0.2-0.6-0.8-0.5-1.2L1095.9,596.9L1095.9,596.9z M1062,621.3c-13.8,0-24.9-11.2-24.9-24.9s11.2-24.9,24.9-24.9
	s24.9,11.2,24.9,24.9S1075.8,621.3,1062,621.3z"/>
<path class="st1" d="M135.6,917.1c0-0.4,0.3-1,0.7-1.2l8-4c0.4-0.2,0.7-0.7,0.6-1.1l-1.8-8.5c-0.1-0.4-0.6-0.8-1-0.8l-9.1-0.6
	c-0.4,0-1-0.4-1.2-0.8l-1.2-2.3c-0.2-0.4-0.2-1,0-1.4l4.6-7.7c0.2-0.4,0.2-1-0.1-1.3l-6.2-6.3c-0.3-0.3-0.9-0.4-1.3-0.2l-7.9,4.4
	c-0.4,0.2-1,0.2-1.4,0l-2.1-1.2c-0.4-0.2-0.7-0.7-0.7-1.2l-0.3-9.1c0-0.4-0.4-0.9-0.8-1l-8.6-2c-0.4-0.1-1,0.2-1.2,0.6l-4.2,7.9
	c-0.2,0.4-0.6,0.7-0.8,0.7h-0.2c-1.2,0-2.9,0.1-2.9,0.1c-0.4,0-1-0.2-1.3-0.6L90,872c-0.3-0.4-0.8-0.6-1.2-0.4l-8.2,2.8
	c-0.4,0.2-0.7,0.7-0.7,1.1l0.7,8.9c0,0.4-0.2,1-0.6,1.2l-2.6,1.8c-0.3,0.3-1,0.3-1.4,0.2l-8.4-3.5c-0.4-0.2-1,0-1.3,0.3l-5.2,6.5
	c-0.3,0.3-0.3,0.9,0,1.3l5.4,7.1c0.3,0.3,0.3,1,0.2,1.4l-1.5,3.5c-0.2,0.4-0.6,0.8-1.1,0.9l-8.9,1.6c-0.4,0.1-0.8,0.5-0.9,0.9
	c0,0-0.9,5.5-0.9,8.8l0,0c0,0,0.3,0.2,0.8,0.3l8.3,3c0.4,0.2,0.8,0.6,0.9,1.1l0.8,4.3c0.1,0.4-0.1,1-0.4,1.3l-6.6,6.2
	c-0.3,0.3-0.4,0.9-0.3,1.3l3.6,7c0.2,0.4,0.8,0.6,1.2,0.5l8.7-2c0.4-0.1,1,0.1,1.3,0.4L75,943c0.3,0.3,0.5,0.9,0.4,1.3l-2.2,8.7
	c-0.1,0.4,0.1,1,0.5,1.2l6.8,3.8c0.4,0.2,1,0.1,1.3-0.2l6.3-6.4c0.3-0.3,0.9-0.5,1.3-0.4l4.5,1c0.4,0.1,0.9,0.5,1,0.9l2.8,8.4
	c0.1,0.4,0.6,0.8,1,0.8c0,0,0.2,0,0.8,0c2.7,0,7.1-0.6,7.1-0.6c0.4-0.1,0.9-0.5,1-0.9l1.9-8.8c0.1-0.4,0.5-0.9,0.9-1l3.9-1.5
	c0.4-0.2,1-0.1,1.4,0.2l6.9,5.6c0.3,0.3,0.9,0.3,1.3,0.1l6.5-4.9c0.3-0.3,0.5-0.9,0.3-1.3l-3.2-8.5c-0.2-0.4-0.1-1,0.2-1.4l2.1-2.9
	c0.3-0.4,0.8-0.6,1.2-0.6l8.8,1c0.4,0,0.9-0.3,1.1-0.6l2.9-7.9c0.1-0.4-0.1-1-0.4-1.2l-7.3-5.4c-0.3-0.3-0.6-0.8-0.6-1.3
	L135.6,917.1L135.6,917.1z M99.3,943.2c-14.8,0-26.8-12-26.8-26.8s12-26.8,26.8-26.8s26.8,12,26.8,26.8
	C126.1,931.2,114.1,943.2,99.3,943.2z"/>
<path class="st2" d="M1970,625.6c0-0.5,0.4-1.1,0.8-1.3l9.1-4.6c0.4-0.2,0.7-0.8,0.7-1.3l-2.1-9.7c-0.1-0.5-0.7-0.9-1.1-0.9
	l-10.3-0.7c-0.5,0-1.1-0.4-1.3-0.9l-1.4-2.6c-0.3-0.4-0.3-1.1,0-1.6l5.2-8.8c0.3-0.4,0.2-1.1-0.1-1.5l-7-7.2c-0.4-0.3-1-0.4-1.5-0.2
	l-9,5c-0.4,0.2-1.1,0.2-1.6,0l-2.4-1.4c-0.4-0.2-0.8-0.8-0.8-1.3l-0.4-10.3c0-0.5-0.4-1-0.9-1.2l-9.7-2.3c-0.5-0.1-1.1,0.2-1.3,0.6
	l-4.8,9c-0.2,0.4-0.6,0.8-0.9,0.8h-0.2c-1.4,0-3.2,0.1-3.2,0.1c-0.5,0-1.1-0.3-1.4-0.7l-5.9-8.5c-0.3-0.4-0.9-0.6-1.4-0.5l-9.3,3.1
	c-0.5,0.2-0.8,0.7-0.8,1.2l0.8,10.1c0,0.5-0.3,1.1-0.7,1.4l-3,2.1c-0.4,0.3-1.1,0.4-1.6,0.2l-9.5-4c-0.5-0.2-1.1,0-1.4,0.3l-6,7.4
	c-0.3,0.4-0.3,1.1,0,1.5l6.1,8.1c0.3,0.4,0.4,1.1,0.2,1.5l-1.7,4c-0.2,0.5-0.7,0.9-1.2,1l-10.2,1.8c-0.5,0.1-1,0.6-1,1.1
	c0,0-1,6.3-1,10l0,0c0,0,0.4,0.2,0.9,0.4l9.5,3.5c0.5,0.2,0.9,0.7,1,1.2l0.9,4.9c0.1,0.5-0.1,1.2-0.5,1.5l-7.5,7
	c-0.4,0.3-0.5,1-0.3,1.4l4.1,7.9c0.3,0.4,0.9,0.7,1.4,0.6l9.9-2.2c0.5-0.1,1.2,0.1,1.5,0.5l3.6,3.8c0.4,0.4,0.6,1,0.4,1.5l-2.5,9.9
	c-0.1,0.5,0.1,1.1,0.5,1.4l7.7,4.3c0.4,0.2,1.1,0.1,1.4-0.2l7.2-7.3c0.4-0.4,1-0.5,1.5-0.4l5.1,1.1c0.5,0.1,1,0.5,1.2,1l3.2,9.6
	c0.2,0.5,0.7,0.9,1.2,0.9c0,0,0.3,0,0.9,0c3.1,0,8.1-0.7,8.1-0.7c0.5-0.1,1-0.5,1.1-1l2.1-10.1c0.1-0.5,0.6-1,1.1-1.2l4.5-1.7
	c0.5-0.2,1.2-0.1,1.5,0.2l7.9,6.3c0.4,0.3,1.1,0.3,1.5,0.1l7.4-5.6c0.4-0.3,0.5-1,0.4-1.4l-3.7-9.7c-0.2-0.5-0.1-1.2,0.2-1.6
	l2.4-3.3c0.3-0.4,0.9-0.7,1.4-0.7l10.1,1.1c0.5,0,1.1-0.3,1.3-0.7l3.3-9c0.1-0.5-0.1-1.1-0.5-1.4l-8.3-6.2c-0.4-0.3-0.7-1-0.7-1.4
	L1970,625.6L1970,625.6z M1928.6,655.3c-16.8,0-30.5-13.7-30.5-30.5s13.7-30.5,30.5-30.5s30.5,13.7,30.5,30.5
	S1945.5,655.3,1928.6,655.3z"/>
<ellipse transform="matrix(0.7071 -0.7071 0.7071 0.7071 -322.0849 588.2184)" class="st2" cx="549" cy="682.9" rx="53.9" ry="53.9"/>
<circle class="st2" cx="702.6" cy="632.1" r="35.8"/>
<circle class="st2" cx="28.2" cy="569.6" r="43.7"/>
<circle class="st2" cx="176" cy="643.6" r="47.8"/>
<circle class="st2" cx="306.7" cy="600.5" r="26"/>
<circle class="st2" cx="945" cy="591.9" r="39.1"/>
<circle class="st2" cx="1164.6" cy="611.4" r="23.7"/>
<circle class="st2" cx="1265.2" cy="654.3" r="34.5"/>
<ellipse class="st2" cx="1552.4" cy="670.2" rx="52.6" ry="50.4"/>
<circle class="st2" cx="1813.3" cy="644.3" r="33.3"/>
<circle class="st1" cx="1691.9" cy="629" r="37.6"/>
<circle class="st1" cx="1928.6" cy="624.9" r="30.5"/>
<circle class="st1" cx="1394.5" cy="602.9" r="41.8"/>
<circle class="st1" cx="825.6" cy="625.7" r="26.4"/>
<circle class="st1" cx="409.7" cy="625.2" r="31.8"/>
<path class="st1" d="M1244.9,606.8c0-0.5,0.4-1.1,0.9-1.4l9.5-4.8c0.5-0.2,0.8-0.8,0.7-1.4l-2.2-10.1c-0.1-0.5-0.7-0.9-1.2-1
	l-10.8-0.7c-0.5,0-1.1-0.4-1.4-0.9l-1.5-2.7c-0.3-0.4-0.3-1.2,0-1.6l5.5-9.2c0.3-0.4,0.2-1.1-0.1-1.5l-7.3-7.5
	c-0.4-0.3-1.1-0.4-1.5-0.2l-9.4,5.2c-0.4,0.2-1.2,0.2-1.6,0l-2.5-1.4c-0.5-0.2-0.8-0.9-0.9-1.4l-0.4-10.8c0-0.5-0.4-1.1-0.9-1.2
	l-10.2-2.4c-0.5-0.1-1.1,0.2-1.4,0.7l-5.1,9.4c-0.2,0.5-0.7,0.8-0.9,0.8h-0.2c-1.5,0-3.4,0.1-3.4,0.1c-0.5,0-1.2-0.3-1.5-0.7
	l-6.2-8.9c-0.3-0.4-0.9-0.7-1.5-0.5l-9.7,3.3c-0.5,0.2-0.8,0.8-0.8,1.3l0.8,10.6c0,0.5-0.3,1.2-0.7,1.5l-3.1,2.1
	c-0.4,0.3-1.2,0.4-1.6,0.2l-10-4.1c-0.5-0.2-1.2,0-1.5,0.3l-6.2,7.7c-0.3,0.4-0.3,1.1,0,1.5l6.4,8.4c0.3,0.4,0.4,1.1,0.2,1.6
	l-1.7,4.2c-0.2,0.5-0.7,1-1.3,1.1l-10.6,1.9c-0.5,0.1-1,0.6-1.1,1.1c0,0-1,6.5-1,10.4l0,0c0,0,0.4,0.2,0.9,0.4l9.9,3.6
	c0.5,0.2,0.9,0.7,1,1.3l0.9,5.1c0.1,0.5-0.1,1.2-0.5,1.6l-7.8,7.3c-0.4,0.3-0.5,1-0.3,1.5l4.3,8.3c0.3,0.4,0.9,0.7,1.4,0.6l10.3-2.3
	c0.5-0.1,1.2,0.1,1.6,0.5l3.8,4c0.4,0.4,0.6,1.1,0.4,1.6l-2.6,10.3c-0.1,0.5,0.1,1.1,0.6,1.4l8.1,4.5c0.5,0.2,1.1,0.1,1.5-0.2
	l7.5-7.6c0.4-0.4,1.1-0.6,1.6-0.4l5.3,1.2c0.5,0.1,1.1,0.6,1.2,1.1l3.3,10c0.2,0.5,0.7,0.9,1.2,0.9c0,0,0.3,0,0.9,0
	c3.2,0,8.5-0.7,8.5-0.7c0.5-0.1,1-0.5,1.1-1l2.2-10.5c0.1-0.5,0.6-1.1,1.1-1.2l4.7-1.8c0.5-0.2,1.2-0.1,1.6,0.2l8.2,6.6
	c0.4,0.3,1.1,0.3,1.5,0.1l7.7-5.9c0.4-0.3,0.6-1,0.4-1.5l-3.8-10.1c-0.2-0.5-0.1-1.2,0.2-1.6l2.5-3.5c0.3-0.4,1-0.7,1.5-0.7
	l10.5,1.1c0.5,0,1.1-0.3,1.3-0.8l3.4-9.4c0.1-0.5-0.1-1.2-0.5-1.5l-8.7-6.4c-0.4-0.3-0.7-1-0.7-1.5L1244.9,606.8L1244.9,606.8z
	 M1201.7,637.8c-17.6,0-31.8-14.2-31.8-31.8s14.2-31.8,31.8-31.8s31.8,14.2,31.8,31.8S1219.3,637.8,1201.7,637.8z"/>
</svg>
